<svg width="706" height="686" viewBox="0 0 706 686" fill="none" xmlns="http://www.w3.org/2000/svg">
<path d="M107 100C107 44.7715 151.772 0 207 0H532C587.228 0 632 44.7715 632 100V661C632 674.807 620.807 686 607 686H132C118.193 686 107 674.807 107 661V100Z" fill="#FFB0C3"/>
<rect y="20" width="706" height="471"/>
<g filter="url(#filter0_d_78:375)">
<rect x="74" y="100" width="70" height="70" rx="15" fill="white"/>
<path d="M119.428 143.307C118.304 142.184 118.066 140.503 118.678 139.038L118.709 138.965C119.308 137.503 120.673 136.5 122.252 136.5H122.373C123.33 136.5 124 135.83 124 135C124 134.17 123.33 133.5 122.5 133.5H122.245C120.666 133.5 119.308 132.497 118.709 131.034L118.678 130.961C118.066 129.495 118.304 127.815 119.428 126.691L119.606 126.513C119.746 126.374 119.856 126.208 119.932 126.026C120.007 125.844 120.046 125.649 120.046 125.453C120.046 125.256 120.007 125.061 119.932 124.879C119.856 124.697 119.746 124.531 119.606 124.392C119.467 124.253 119.302 124.142 119.12 124.067C118.938 123.992 118.743 123.953 118.546 123.953C118.349 123.953 118.154 123.992 117.972 124.067C117.79 124.142 117.625 124.253 117.486 124.392L117.307 124.57C116.184 125.694 114.503 125.932 113.038 125.32L112.965 125.289C111.503 124.692 110.5 123.327 110.5 121.747V121.626C110.5 120.671 109.83 120 109 120C108.17 120 107.5 120.671 107.5 121.5V121.554C107.5 123.198 106.51 124.68 104.99 125.309L104.982 125.313C104.239 125.62 103.421 125.701 102.633 125.544C101.845 125.387 101.12 125 100.552 124.431L100.514 124.393L96.5605 120.439L94.4395 122.561L121.439 149.561L123.561 147.439L119.606 143.486L119.428 143.307ZM109 132C109 131.407 109.176 130.827 109.506 130.333C109.835 129.84 110.304 129.455 110.852 129.228C111.4 129.001 112.003 128.942 112.585 129.058C113.167 129.173 113.702 129.459 114.121 129.879C114.541 130.298 114.827 130.833 114.942 131.415C115.058 131.997 114.999 132.6 114.772 133.148C114.545 133.696 114.16 134.165 113.667 134.494C113.173 134.824 112.593 135 112 135C111.615 135 111.249 134.92 110.908 134.787L109.212 133.09C109.074 132.743 109.002 132.374 109 132ZM103 136.5C102.602 136.5 102.221 136.342 101.939 136.061C101.658 135.779 101.5 135.398 101.5 135C101.506 134.649 101.635 134.312 101.866 134.047L99.1465 131.328C98.8178 131.98 98.315 132.528 97.6939 132.911C97.0727 133.295 96.3575 133.498 95.6275 133.5H95.626C94.6705 133.5 94 134.17 94 135C94 135.83 94.6705 136.5 95.5 136.5H95.602C96.3919 136.5 97.164 136.734 97.8206 137.173C98.4773 137.612 98.9888 138.236 99.2905 138.966L99.322 139.039C99.6266 139.776 99.7061 140.587 99.5505 141.369C99.3948 142.151 99.011 142.869 98.4475 143.433L98.3935 143.487C98.1122 143.768 97.9542 144.15 97.9542 144.548C97.9542 144.945 98.1122 145.327 98.3935 145.608C98.6748 145.889 99.0562 146.047 99.454 146.047C99.8518 146.047 100.233 145.889 100.514 145.608L100.569 145.554C101.132 144.99 101.851 144.606 102.633 144.451C103.415 144.295 104.225 144.375 104.962 144.679L105.177 144.77C105.864 145.054 106.453 145.536 106.866 146.154C107.28 146.773 107.5 147.501 107.5 148.245V148.373C107.5 149.33 108.17 150 109 150C109.83 150 110.5 149.328 110.5 148.5V148.245C110.5 146.781 111.352 145.465 112.664 144.846L103.951 136.132C103.688 136.365 103.351 136.495 103 136.5Z" fill="#FFB0C3"/>
</g>
<g filter="url(#filter1_d_78:375)">
<rect x="72" y="220" width="70" height="70" rx="15" fill="white"/>
<path d="M106.73 237.971C103.056 237.975 99.5325 239.437 96.9341 242.036C94.3356 244.634 92.8739 248.157 92.8695 251.832C92.8651 254.835 93.8461 257.757 95.6619 260.148C95.6619 260.148 96.0399 260.646 96.1016 260.718L106.73 273.253L117.364 260.712C117.42 260.645 117.799 260.148 117.799 260.148L117.8 260.145C119.615 257.754 120.596 254.834 120.591 251.832C120.587 248.157 119.125 244.634 116.527 242.036C113.928 239.437 110.405 237.975 106.73 237.971ZM106.73 256.872C105.734 256.872 104.759 256.577 103.93 256.023C103.101 255.469 102.455 254.682 102.074 253.761C101.692 252.84 101.592 251.826 101.787 250.849C101.981 249.871 102.461 248.973 103.166 248.268C103.871 247.563 104.769 247.083 105.747 246.888C106.725 246.694 107.738 246.794 108.659 247.175C109.58 247.557 110.367 248.203 110.921 249.032C111.475 249.861 111.771 250.835 111.771 251.832C111.769 253.168 111.237 254.449 110.293 255.394C109.348 256.339 108.067 256.871 106.73 256.872Z" fill="#9BD7F1"/>
</g>
<g filter="url(#filter2_d_78:375)">
<rect x="74" y="340" width="70" height="70" rx="15" fill="white"/>
<path d="M109.417 358.333C100.227 358.333 92.75 365.81 92.75 375C92.75 384.19 100.227 391.667 109.417 391.667C118.607 391.667 126.083 384.19 126.083 375C126.083 365.81 118.607 358.333 109.417 358.333ZM119 376.667H107.75V365H111.083V373.333H119V376.667Z" fill="#B2FFBA"/>
</g>
<defs>
<filter id="filter0_d_78:375" x="59" y="89" width="100" height="100" filterUnits="userSpaceOnUse" color-interpolation-filters="sRGB">
<feFlood flood-opacity="0" result="BackgroundImageFix"/>
<feColorMatrix in="SourceAlpha" type="matrix" values="0 0 0 0 0 0 0 0 0 0 0 0 0 0 0 0 0 0 127 0" result="hardAlpha"/>
<feOffset dy="4"/>
<feGaussianBlur stdDeviation="7.5"/>
<feComposite in2="hardAlpha" operator="out"/>
<feColorMatrix type="matrix" values="0 0 0 0 1 0 0 0 0 0.690196 0 0 0 0 0.764706 0 0 0 0.25 0"/>
<feBlend mode="normal" in2="BackgroundImageFix" result="effect1_dropShadow_78:375"/>
<feBlend mode="normal" in="SourceGraphic" in2="effect1_dropShadow_78:375" result="shape"/>
</filter>
<filter id="filter1_d_78:375" x="57" y="209" width="100" height="100" filterUnits="userSpaceOnUse" color-interpolation-filters="sRGB">
<feFlood flood-opacity="0" result="BackgroundImageFix"/>
<feColorMatrix in="SourceAlpha" type="matrix" values="0 0 0 0 0 0 0 0 0 0 0 0 0 0 0 0 0 0 127 0" result="hardAlpha"/>
<feOffset dy="4"/>
<feGaussianBlur stdDeviation="7.5"/>
<feComposite in2="hardAlpha" operator="out"/>
<feColorMatrix type="matrix" values="0 0 0 0 1 0 0 0 0 0.690196 0 0 0 0 0.764706 0 0 0 0.25 0"/>
<feBlend mode="normal" in2="BackgroundImageFix" result="effect1_dropShadow_78:375"/>
<feBlend mode="normal" in="SourceGraphic" in2="effect1_dropShadow_78:375" result="shape"/>
</filter>
<filter id="filter2_d_78:375" x="59" y="329" width="100" height="100" filterUnits="userSpaceOnUse" color-interpolation-filters="sRGB">
<feFlood flood-opacity="0" result="BackgroundImageFix"/>
<feColorMatrix in="SourceAlpha" type="matrix" values="0 0 0 0 0 0 0 0 0 0 0 0 0 0 0 0 0 0 127 0" result="hardAlpha"/>
<feOffset dy="4"/>
<feGaussianBlur stdDeviation="7.5"/>
<feComposite in2="hardAlpha" operator="out"/>
<feColorMatrix type="matrix" values="0 0 0 0 1 0 0 0 0 0.690196 0 0 0 0 0.764706 0 0 0 0.25 0"/>
<feBlend mode="normal" in2="BackgroundImageFix" result="effect1_dropShadow_78:375"/>
<feBlend mode="normal" in="SourceGraphic" in2="effect1_dropShadow_78:375" result="shape"/>
</filter>
</defs>
</svg>
