<svg width="50" height="50" viewBox="0 0 50 50" fill="none" xmlns="http://www.w3.org/2000/svg">
<path d="M10 30.5385C10 31.1913 9.73661 31.8174 9.26777 32.279C8.79893 32.7407 8.16304 33 7.5 33C6.83696 33 6.20107 32.7407 5.73223 32.279C5.26339 31.8174 5 31.1913 5 30.5385V19.4615C5 18.8087 5.26339 18.1826 5.73223 17.721C6.20107 17.2593 6.83696 17 7.5 17C8.16304 17 8.79893 17.2593 9.26777 17.721C9.73661 18.1826 10 18.8087 10 19.4615V30.5385Z" fill="#7CB342"/>
<path d="M45 30.5385C45 31.1913 44.7366 31.8174 44.2678 32.279C43.7989 32.7407 43.163 33 42.5 33C41.837 33 41.2011 32.7407 40.7322 32.279C40.2634 31.8174 40 31.1913 40 30.5385V19.4615C40 18.8087 40.2634 18.1826 40.7322 17.721C41.2011 17.2593 41.837 17 42.5 17C43.163 17 43.7989 17.2593 44.2678 17.721C44.7366 18.1826 45 18.8087 45 19.4615V30.5385Z" fill="#7CB342"/>
<path d="M23 44.5385C23 45.1913 22.7366 45.8174 22.2678 46.279C21.7989 46.7407 21.163 47 20.5 47C19.837 47 19.2011 46.7407 18.7322 46.279C18.2634 45.8174 18 45.1913 18 44.5385V33.4615C18 32.8087 18.2634 32.1826 18.7322 31.721C19.2011 31.2593 19.837 31 20.5 31C21.163 31 21.7989 31.2593 22.2678 31.721C22.7366 32.1826 23 32.8087 23 33.4615V44.5385Z" fill="#7CB342"/>
<path d="M33 44.5385C33 45.1913 32.7366 45.8174 32.2678 46.279C31.7989 46.7407 31.163 47 30.5 47C29.837 47 29.2011 46.7407 28.7322 46.279C28.2634 45.8174 28 45.1913 28 44.5385V33.4615C28 32.8087 28.2634 32.1826 28.7322 31.721C29.2011 31.2593 29.837 31 30.5 31C31.163 31 31.7989 31.2593 32.2678 31.721C32.7366 32.1826 33 32.8087 33 33.4615V44.5385Z" fill="#7CB342"/>
<path d="M13 17V35.5293C13 36.1845 13.2634 36.813 13.7322 37.2763C14.2011 37.7397 14.837 38 15.5 38H35.5C36.163 38 36.7989 37.7397 37.2678 37.2763C37.7366 36.813 38 36.1845 38 35.5293V17H13Z" fill="#7CB342"/>
<path d="M25.5 4C18 4 13.4313 8.55625 13 14H38C37.5675 8.55625 33 4 25.5 4ZM20.5 10.9975C20.1685 10.9975 19.8505 10.8658 19.6161 10.6314C19.3817 10.397 19.25 10.079 19.25 9.7475C19.25 9.41598 19.3817 9.09804 19.6161 8.86362C19.8505 8.6292 20.1685 8.4975 20.5 8.4975C20.8315 8.4975 21.1495 8.6292 21.3839 8.86362C21.6183 9.09804 21.75 9.41598 21.75 9.7475C21.75 10.079 21.6183 10.397 21.3839 10.6314C21.1495 10.8658 20.8315 10.9975 20.5 10.9975ZM30.5 10.9975C30.1685 10.9975 29.8505 10.8658 29.6161 10.6314C29.3817 10.397 29.25 10.079 29.25 9.7475C29.25 9.41598 29.3817 9.09804 29.6161 8.86362C29.8505 8.6292 30.1685 8.4975 30.5 8.4975C30.8315 8.4975 31.1495 8.6292 31.3839 8.86362C31.6183 9.09804 31.75 9.41598 31.75 9.7475C31.75 10.079 31.6183 10.397 31.3839 10.6314C31.1495 10.8658 30.8315 10.9975 30.5 10.9975Z" fill="#7CB342"/>
<path d="M33 3L31 6" stroke="#7CB342" stroke-width="0.958333" stroke-linecap="round"/>
<path d="M18 3L19 6" stroke="#7CB342" stroke-width="0.958333" stroke-linecap="round"/>
</svg>
