<svg width="39" height="56" viewBox="0 0 39 56" fill="none" xmlns="http://www.w3.org/2000/svg">
<path d="M4.92676 35.4714C4.92676 36.7958 5.73204 37.8696 6.72559 37.8696C7.71876 37.8696 8.52423 36.7958 8.52423 35.4714C8.52423 34.1471 7.71876 33.0735 6.72559 33.0735C5.73204 33.0735 4.92676 34.1471 4.92676 35.4714Z" fill="#00FFEE"/>
<path d="M6.72555 33.5257C5.94799 33.5257 5.31559 34.3987 5.31559 35.4713C5.31559 36.5444 5.94799 37.4177 6.72555 37.4177C7.50291 37.4177 8.13551 36.5444 8.13551 35.4713C8.13551 34.3987 7.50291 33.5257 6.72555 33.5257ZM6.72555 38.3215C5.51927 38.3215 4.53784 37.0432 4.53784 35.4713C4.53784 33.9 5.51927 32.6216 6.72555 32.6216C7.93183 32.6216 8.91287 33.9 8.91287 35.4713C8.91287 37.0432 7.93183 38.3215 6.72555 38.3215Z" fill="#181818"/>
<path d="M3.47561 29.0593C3.57495 31.3262 5.15028 33.0765 6.99454 32.9684C8.839 32.8601 10.2538 30.9345 10.1544 28.6678C10.0555 26.4008 8.47977 24.6508 6.63531 24.7589C4.79105 24.867 3.37647 26.7926 3.47561 29.0593Z" fill="#00FFEE"/>
<path d="M3.8641 29.0364C3.95227 31.0512 5.34548 32.6145 6.9751 32.5171C7.7592 32.4712 8.48112 32.051 9.00803 31.3342C9.53994 30.61 9.80926 29.6713 9.76633 28.6908C9.67816 26.6762 8.28014 25.1121 6.65495 25.2101C5.87104 25.2563 5.14912 25.6765 4.6224 26.3931C4.09049 27.1173 3.82097 28.0561 3.8641 29.0367V29.0364ZM6.83321 33.4255C4.8565 33.4255 3.19435 31.5211 3.0875 29.0826V29.0823C3.03437 27.8701 3.36972 26.7065 4.0312 25.8059C4.69825 24.8983 5.61615 24.3657 6.61587 24.3071C8.66882 24.1835 10.433 26.1327 10.5429 28.6449C10.5961 29.8574 10.2609 31.0208 9.59904 31.9216C8.93218 32.8292 8.01428 33.3615 7.01418 33.4204C6.95373 33.424 6.89309 33.4255 6.83321 33.4255Z" fill="#181818"/>
<path d="M3.85754 12.3509C4.31572 15.7871 7.05979 18.1482 9.98675 17.6252C12.9137 17.1021 14.9151 13.8928 14.4571 10.4566C13.9989 7.02033 11.2548 4.65929 8.32787 5.18244C5.40091 5.70538 3.39936 8.91463 3.85754 12.3509Z" fill="#00FFEE"/>
<path d="M9.1382 5.56221C8.89005 5.56221 8.63921 5.58415 8.38683 5.62915C7.08352 5.86196 5.9348 6.67433 5.15224 7.91696C4.35774 9.17749 4.03432 10.7277 4.24147 12.2815C4.66615 15.4658 7.21732 17.6621 9.9275 17.1783C11.2308 16.9451 12.3795 16.1327 13.1621 14.8903C13.9564 13.6295 14.2798 12.0793 14.0727 10.5255C13.6878 7.63781 11.554 5.56221 9.1382 5.56221ZM9.17613 18.1494C6.38316 18.1494 3.91766 15.7539 3.47315 12.42C3.23424 10.6274 3.60752 8.83835 4.52484 7.38216C5.43042 5.94523 6.75991 5.00504 8.26862 4.73574C11.4025 4.17565 14.351 6.71037 14.841 10.387C15.0801 12.1798 14.7066 13.9687 13.7893 15.4246C12.8839 16.862 11.5544 17.802 10.0457 18.0717C9.75366 18.1239 9.46297 18.1494 9.17613 18.1494Z" fill="#181818"/>
<path d="M11.6183 6.41553C11.6183 9.70904 13.9793 12.3789 16.8916 12.3789C19.8039 12.3789 22.1649 9.70904 22.1649 6.41553C22.1649 3.12201 19.8039 0.452148 16.8916 0.452148C13.9793 0.452148 11.6183 3.12201 11.6183 6.41553Z" fill="#00FFEE"/>
<path d="M16.8915 0.904161C14.1982 0.904161 12.007 3.37667 12.007 6.41554C12.007 9.45485 14.1982 11.9274 16.8915 11.9274C19.5849 11.9274 21.7761 9.45485 21.7761 6.41554C21.7761 3.37667 19.5849 0.904161 16.8915 0.904161ZM16.8915 12.8313C13.7695 12.8313 11.2295 9.95316 11.2295 6.41554C11.2295 2.87814 13.7695 0 16.8915 0C20.0136 0 22.5536 2.87814 22.5536 6.41554C22.5536 9.95316 20.0136 12.8313 16.8915 12.8313Z" fill="#181818"/>
<path d="M1.66846 20.5631C1.66846 23.447 3.46306 25.7849 5.67676 25.7849C7.89046 25.7849 9.68506 23.447 9.68506 20.5631C9.68506 17.6792 7.89046 15.3413 5.67676 15.3413C3.46306 15.3413 1.66846 17.6792 1.66846 20.5631Z" fill="#00FFEE"/>
<path d="M5.67672 15.7931C3.68094 15.7931 2.0571 17.9329 2.0571 20.5628C2.0571 23.1931 3.68094 25.3327 5.67672 25.3327C7.6723 25.3327 9.29614 23.1931 9.29614 20.5628C9.29614 17.9329 7.6723 15.7931 5.67672 15.7931ZM5.67672 26.2368C3.25202 26.2368 1.27954 23.6914 1.27954 20.5628C1.27954 17.4344 3.25202 14.8889 5.67672 14.8889C8.10122 14.8889 10.0737 17.4344 10.0737 20.5628C10.0737 23.6914 8.10122 26.2368 5.67672 26.2368Z" fill="#181818"/>
<path d="M24.6764 41.0176C25.6711 43.6102 28.4452 45.7759 31.3479 43.9025C34.1932 42.0663 34.5977 35.6245 32.4631 33.2177C31.6669 32.3201 29.8461 32.135 28.7047 33.0341L24.6764 41.0176Z" fill="white"/>
<path d="M29.1149 45.0608C28.6196 45.0608 28.1252 44.967 27.6393 44.7781C26.2076 44.2224 24.9673 42.8853 24.3214 41.2017C24.234 40.9738 24.322 40.7065 24.5179 40.6047C24.7139 40.5035 24.9442 40.6051 25.0314 40.8332C25.5818 42.2679 26.6754 43.4508 27.8854 43.9205C28.9613 44.338 30.0933 44.1956 31.1592 43.5077C32.2987 42.7718 33.1215 41.0822 33.36 38.9873C33.613 36.7644 33.1548 34.6268 32.1924 33.5415C31.5516 32.8189 29.9502 32.5981 28.9226 33.4081C28.7453 33.5482 28.5031 33.494 28.3828 33.2874C28.2623 33.0808 28.3089 32.7998 28.4866 32.6595C29.7312 31.679 31.7556 31.7898 32.7338 32.8927C33.8667 34.1703 34.415 36.609 34.1308 39.1057C33.86 41.4833 32.8901 43.4242 31.5365 44.2979C30.7511 44.8051 29.932 45.0608 29.1149 45.0608Z" fill="#181818"/>
<path d="M36.8301 42.7931C35.0334 46.5489 32.9542 48.2924 31.5487 47.3234C29.963 46.2299 29.6861 42.5348 31.398 38.0276C32.9236 34.0111 35.3628 32.1939 37.2717 33.7584C39.3878 35.4934 38.3586 39.5966 36.8301 42.7931Z" fill="white"/>
<path d="M36.3992 43.3593C35.4106 45.4034 33.0369 47.1786 32.9686 46.8985C32.8527 46.4235 34.0024 45.4845 35.7017 41.8008C36.8995 39.2037 37.6391 36.6414 38.4327 36.9274C39.1788 37.1956 37.518 41.0453 36.3992 43.3593Z" fill="#00FFEE"/>
<path d="M32.2188 47.9644C31.8211 47.9644 31.4484 47.8408 31.1207 47.5968C30.0082 46.7688 29.5271 44.9303 29.8003 42.5528C29.8288 42.3052 30.0242 42.1315 30.2371 42.1644C30.45 42.1975 30.5994 42.4249 30.5709 42.6725C30.3393 44.6872 30.6924 46.2047 31.5398 46.8353C31.8392 47.0584 32.1948 47.1166 32.5962 47.0074C33.7535 46.694 35.1473 45.1103 36.42 42.6622C37.9954 39.6317 39.0392 35.8296 37.2438 34.2481C35.4956 32.7089 33.8644 34.5537 33.0476 35.7902C32.9169 35.9883 32.6726 36.026 32.5026 35.8733C32.3322 35.7213 32.3001 35.4377 32.431 35.2393C34.1195 32.6823 36.0448 32.058 37.7131 33.5273C39.5872 35.1782 39.353 38.7681 37.0855 43.1301C35.6846 45.8243 34.153 47.514 32.7725 47.8878C32.584 47.9391 32.3988 47.9644 32.2188 47.9644Z" fill="#181818"/>
<path d="M7.92547 38.774C7.92547 38.774 5.63977 40.2351 3.71639 38.2558C1.29824 35.7674 -0.746237 38.4778 1.1142 42.4521C4.3432 49.3492 12.5823 49.1422 12.5823 49.1422C12.5823 49.1422 13.2731 46.667 7.92547 38.774Z" fill="white"/>
<path d="M1.92842 37.7547C1.68816 37.7547 1.47236 37.8352 1.29371 38.0004C0.681905 38.567 0.471682 40.134 1.45561 42.2361C4.16214 48.0168 10.6348 48.6235 12.2199 48.6844C12.1766 47.8216 11.6784 45.107 7.80696 39.331C7.06926 39.6742 5.13124 40.3153 3.4587 38.5943C2.92255 38.0428 2.38217 37.7547 1.92842 37.7547ZM12.4933 49.5952C12.0476 49.5952 10.1712 49.5484 7.95327 48.8185C4.62724 47.7243 2.14423 45.5975 0.772771 42.6684C-0.432354 40.0943 -0.0769766 38.1137 0.809541 37.2929C1.46042 36.6909 2.63359 36.5378 3.97405 37.9176C5.67278 39.6657 7.71783 38.3908 7.73824 38.3779C7.90457 38.2713 8.11325 38.3203 8.23068 38.4943C13.5534 46.3503 13.0294 49.0049 12.9522 49.2818C12.901 49.4647 12.7563 49.5903 12.5909 49.5943C12.5814 49.5945 12.5481 49.5952 12.4933 49.5952Z" fill="#181818"/>
<path d="M22.0704 50.2184C27.5778 49.6809 31.9093 45.8754 32.1882 39.5842C32.4491 33.6998 29.7649 26.8427 20.871 24.858C15.6482 23.6927 6.62978 25.4649 4.82556 26.1002C7.91788 33.2087 6.0715 33.5928 6.84328 38.7938C6.84328 38.7938 4.68214 41.6457 5.84799 46.074C6.7322 49.4324 16.5632 50.7556 22.0704 50.2184Z" fill="white"/>
<path d="M18.7915 50.9744C15.0762 50.9744 10.9303 50.136 6.95299 48.5424C6.74989 48.4609 6.64208 48.2037 6.71215 47.9676C6.78204 47.7314 7.00323 47.6056 7.20633 47.6875C12.4221 49.7779 17.9213 50.5423 22.2952 49.7857C28.1124 48.7793 31.2443 45.4526 31.87 39.6149C32.722 31.669 26.7278 26.6256 20.7977 25.3022C16.0374 24.2389 8.04857 25.7199 5.45216 26.4781C7.28853 30.8376 7.21345 32.6372 7.12721 34.7094C7.07966 35.8493 7.03038 37.0283 7.29412 38.8035C7.31221 38.9259 7.28603 39.0522 7.22212 39.1518C7.21345 39.1652 6.34542 40.5271 5.89821 42.2747C5.837 42.5138 5.6208 42.6499 5.41482 42.5792C5.20902 42.5078 5.09197 42.2562 5.153 42.0169C5.55343 40.4521 6.24377 39.2028 6.50097 38.7705C6.2534 36.9976 6.30499 35.7611 6.35042 34.6655C6.43821 32.5615 6.50732 30.8994 4.5462 26.391C4.49442 26.2719 4.49057 26.132 4.53561 26.0093C4.58105 25.8862 4.67037 25.7929 4.78049 25.7541C6.78281 25.0492 15.7369 23.253 20.9444 24.4142C29.895 26.4116 33.2823 33.752 32.6416 39.7268C31.9759 45.9352 28.5334 49.6205 22.4096 50.6802C21.2693 50.8774 20.055 50.9744 18.7915 50.9744Z" fill="#181818"/>
<path d="M4.3031 22.5812C4.3031 11.3555 10.7072 3.99219 17.8057 3.24565C26.4264 2.33883 32.7094 9.03867 33.0519 16.6077C35.1841 19.486 35.9505 29.5127 23.6253 31.3265C15.1602 32.5723 4.3031 33.4379 4.3031 22.5812Z" fill="white"/>
<path d="M25.4084 31.2788C25.2117 31.2788 25.0428 31.1055 25.0222 30.873C25.0003 30.6247 25.1557 30.4027 25.3693 30.3771C28.377 30.0176 32.3814 28.0094 33.7681 23.5326C34.5242 21.0915 34.1527 18.6616 32.7745 17.0315C32.7079 16.9527 32.6684 16.8486 32.6634 16.7382C32.5044 13.2264 31.0113 9.81964 28.5668 7.39151C25.7359 4.5797 21.9294 3.30531 17.846 3.80181C10.729 4.66857 3.98111 11.5126 4.85415 22.9168C5.01066 24.9633 5.78379 27.3829 6.45508 28.9644C6.54998 29.1885 6.47086 29.4596 6.27835 29.5699C6.08526 29.6801 5.85251 29.5885 5.7578 29.3646C5.41686 28.5615 4.28855 25.7288 4.07967 22.9967C3.16216 11.0108 10.2697 3.81524 17.7651 2.90259C22.0622 2.37833 26.0774 3.72973 29.0717 6.70383C31.6387 9.25374 33.2219 12.8235 33.4312 16.5218C34.9401 18.4026 35.3407 21.1235 34.4996 23.8386C33.2575 27.8483 29.7049 30.7678 25.4487 31.2763C25.4354 31.2781 25.4217 31.2788 25.4084 31.2788Z" fill="#181818"/>
<path d="M14.6881 36.7686C14.5061 36.7686 14.3435 36.6192 14.3071 36.4037C14.2657 36.1585 14.403 35.9208 14.6134 35.8727C15.2365 35.7303 15.7505 35.3609 16.0716 35.0762C16.1827 34.9782 16.3304 34.9562 16.4584 35.0196C17.5925 35.5756 18.5054 35.5629 19.0985 34.9829C19.6129 34.4801 19.7775 33.6406 19.6712 33.106C19.6441 32.9704 19.6726 32.828 19.7479 32.7197C19.8233 32.6115 19.9386 32.5547 20.057 32.5524C20.8334 32.5708 21.6266 32.3709 21.6507 31.8925C21.6612 31.6843 21.6089 31.593 21.5686 31.5422C21.4913 31.4444 21.2662 31.2776 20.6319 31.2606C19.3542 31.2263 18.6034 31.2033 18.6034 31.2033C18.484 31.1995 18.3729 31.1323 18.3015 31.021C18.2303 30.9098 18.207 30.7665 18.2384 30.6329C18.2873 30.4186 18.4064 29.5772 18.0896 29.3923C17.9365 29.3034 17.8445 29.3296 17.7819 29.3623C17.4645 29.5281 17.2036 30.2682 17.1272 30.6006C17.0902 30.7623 16.979 30.8874 16.8388 30.925C16.8298 30.9284 16.4134 31.0725 16.1635 31.8495C16.1232 31.9747 16.0376 32.0725 15.9292 32.1173C15.2577 32.3946 13.9436 32.2422 13.796 32.2236C13.7284 32.2153 13.6641 32.1864 13.609 32.1399C13.5378 32.0801 12.9048 31.5388 12.5985 31.0206C12.4769 30.8146 12.5215 30.5333 12.6986 30.3918C12.8754 30.251 13.1174 30.3029 13.2392 30.5082C13.408 30.7941 13.7796 31.1545 13.9833 31.3365C14.4264 31.3826 15.1106 31.4054 15.5136 31.3132C15.7912 30.6062 16.1856 30.2839 16.4351 30.1433C16.5597 29.7175 16.8777 28.8449 17.4614 28.5385C17.7706 28.3764 18.1082 28.3921 18.4378 28.5839C19.0059 28.9148 19.1158 29.6804 19.0714 30.3128C19.4181 30.3228 19.9562 30.3378 20.6498 30.3564C21.3627 30.3757 21.8501 30.563 22.1406 30.9297C22.3512 31.1954 22.4476 31.537 22.4269 31.9453C22.383 32.8191 21.6643 33.3635 20.479 33.4465C20.4788 34.1794 20.2266 35.0608 19.599 35.6748C19.0415 36.2201 18.033 36.6949 16.3616 35.9486C15.8555 36.3567 15.307 36.6356 14.7635 36.7598C14.7381 36.7656 14.7129 36.7686 14.6881 36.7686Z" fill="#181818"/>
<path d="M22.5213 19.6816C22.6595 20.7478 22.0598 21.7385 21.1812 21.8943C20.3022 22.0499 19.4775 21.3117 19.3391 20.2455C19.2007 19.1789 19.8005 18.1883 20.6793 18.0328C21.5578 17.8767 22.3825 18.6152 22.5213 19.6816Z" fill="#181818"/>
<path d="M28.7037 18.0264C28.8317 19.0119 29.4905 19.7122 30.1754 19.5908C30.8598 19.4693 31.3111 18.5722 31.1829 17.5869C31.0548 16.6017 30.3959 15.9012 29.7113 16.0227C29.0267 16.1441 28.5753 17.0414 28.7037 18.0264Z" fill="#181818"/>
<path d="M18.5022 24.1434C22.1513 27.3676 31.7297 24.7428 32.4603 20.2395L18.5022 24.1434Z" fill="white"/>
<path d="M23.1036 26.0356C21.2455 26.0356 19.489 25.5832 18.267 24.5034C18.0958 24.3523 18.0627 24.0686 18.1925 23.8699C18.3224 23.6715 18.5663 23.6321 18.7373 23.7834C20.9288 25.7198 25.2806 25.3468 28.2626 24.0131C30.4484 23.0353 31.8391 21.6291 32.0782 20.1559C32.118 19.9105 32.3205 19.7485 32.5325 19.7955C32.7433 19.8418 32.8821 20.0782 32.8422 20.3233C32.5521 22.1117 30.9847 23.7642 28.5417 24.8568C26.9144 25.5848 24.9583 26.0356 23.1036 26.0356Z" fill="#181818"/>
<path d="M3.35668 38.0121C2.96146 38.8601 3.95173 39.2958 4.74122 39.7232C5.53148 40.1506 5.93941 40.1643 6.21701 39.5598C6.46381 39.0227 6.21547 37.8815 5.4254 37.4544C4.63553 37.0267 3.61445 37.4595 3.35668 38.0121Z" fill="#00FFEE"/>
<path d="M3.69829 38.2277C3.64035 38.3519 3.65613 38.4068 3.66229 38.4276C3.73834 38.6924 4.30182 38.9918 4.71302 39.2103L4.90554 39.3132C5.69387 39.739 5.76934 39.5747 5.87426 39.3466C5.92951 39.2264 5.94645 38.971 5.8602 38.6709C5.75586 38.3074 5.53755 38.0135 5.26149 37.8644C4.65238 37.5352 3.85057 37.9014 3.69829 38.2277ZM5.6134 40.4805C5.22068 40.4805 4.82757 40.2681 4.5773 40.1329L4.3898 40.0324C3.75951 39.6975 3.10805 39.3515 2.92459 38.7143C2.86606 38.5099 2.83391 38.185 3.01468 37.7969L3.01488 37.7966C3.37468 37.0258 4.63313 36.528 5.58953 37.0448C6.0583 37.298 6.42561 37.7866 6.59772 38.3844C6.74229 38.8875 6.72805 39.4066 6.55998 39.7725C6.31184 40.3124 5.96281 40.4805 5.6134 40.4805Z" fill="#181818"/>
<path d="M6.93848 48.0306C8.68725 51.3006 12.9753 53.4896 17.1241 52.3072C21.3515 51.1029 20.5206 42.1997 17.1043 39.0248C15.8296 37.8402 14.3508 38.7237 12.756 39.6876L6.93848 48.0306Z" fill="white"/>
<path d="M14.9743 53.0601C11.6538 53.0601 8.15627 51.1642 6.60809 48.2693C6.4947 48.0573 6.55072 47.7786 6.73303 47.6467C6.91534 47.5144 7.15521 47.58 7.2686 47.792C9.01102 51.0505 13.481 52.9172 17.0284 51.8696C18.4662 51.4447 19.4373 49.854 19.6927 47.5048C20.0042 44.6396 19.1375 40.8327 16.9177 39.4213C16.0872 38.8927 14.8986 38.8784 14.2683 39.3888C14.0924 39.5314 13.8498 39.481 13.7272 39.2762C13.6045 39.0714 13.6479 38.7896 13.824 38.647C14.6867 37.9485 16.2092 37.9405 17.2908 38.6279C19.8125 40.2312 20.808 44.4567 20.4641 47.6183C20.1665 50.3556 18.9839 52.2246 17.2199 52.7455C16.4984 52.9591 15.7407 53.0601 14.9743 53.0601Z" fill="#181818"/>
<path d="M24.7332 47.615C23.4956 52.4655 20.9935 55.3275 18.7043 54.9761C16.1218 54.5801 14.6752 50.783 15.5408 45.1761C16.3122 40.1796 19.212 36.644 22.4057 37.3841C25.9462 38.205 25.7865 43.4871 24.7332 47.615Z" fill="white"/>
<path d="M24.4332 48.162C24.0141 50.8569 21.0266 54.1205 20.6724 54.1196C19.5185 54.1172 18.447 52.3995 19.2902 47.3089C19.8379 44.0014 21.6579 41.2072 23.3314 41.3536C25.6439 41.5558 24.9075 45.1119 24.4332 48.162Z" fill="#00FFEE"/>
<path d="M19.101 55.4583C18.9518 55.4583 18.8025 55.4471 18.6533 55.424C17.396 55.2315 16.4272 54.3632 15.7744 52.8439C15.5294 52.2733 15.3284 51.6042 15.1771 50.8543C15.1282 50.6114 15.2577 50.3681 15.4668 50.3108C15.6757 50.2548 15.8851 50.405 15.9342 50.6479C16.0719 51.3291 16.2521 51.9324 16.47 52.4398C17.0003 53.6744 17.769 54.3766 18.7549 54.5277C20.9141 54.8556 23.2183 51.9635 24.3605 47.4865C25.2204 44.1164 25.2156 41.1049 24.3474 39.4312C23.9029 38.5747 23.2241 38.0352 22.3297 37.8277C20.0942 37.3086 17.9471 38.9768 16.7268 42.1781C16.64 42.4066 16.4103 42.5098 16.2139 42.4084C16.0176 42.3072 15.929 42.0402 16.0162 41.8121C17.3917 38.202 19.8699 36.3344 22.4817 36.9411C23.5995 37.2003 24.4511 37.881 25.0131 38.9645C26.4244 41.6849 25.5481 46.0104 25.1059 47.7439C23.9059 52.4463 21.5344 55.4583 19.101 55.4583Z" fill="#181818"/>
<path d="M36.7445 12.5425L37.4524 15.5273L39 16.2531L37.4524 16.9788L36.7445 19.9636L36.0372 16.9788L34.4896 16.2531L36.0372 15.5273L36.7445 12.5425Z" fill="#00FFEE"/>
</svg>
