<svg width="49" height="49" viewBox="0 0 49 49" fill="none" xmlns="http://www.w3.org/2000/svg">
<rect width="49" height="49" rx="24.5" fill="white"/>
<path d="M24.5 11.8125C21.8571 11.8156 19.3233 12.8669 17.4545 14.7357C15.5857 16.6046 14.5344 19.1383 14.5313 21.7812C14.5281 23.941 15.2336 26.0422 16.5395 27.7625C16.5395 27.7625 16.8114 28.1205 16.8558 28.1721L24.5 37.1875L32.1479 28.1676C32.1877 28.1196 32.4605 27.7625 32.4605 27.7625L32.4614 27.7598C33.7667 26.0403 34.4719 23.9401 34.4688 21.7812C34.4656 19.1383 33.4144 16.6046 31.5455 14.7357C29.6767 12.8669 27.1429 11.8156 24.5 11.8125ZM24.5 25.4062C23.7831 25.4062 23.0822 25.1936 22.4861 24.7953C21.8899 24.397 21.4253 23.8309 21.1509 23.1685C20.8766 22.5061 20.8048 21.7772 20.9447 21.074C21.0845 20.3709 21.4298 19.725 21.9367 19.218C22.4437 18.711 23.0896 18.3658 23.7928 18.2259C24.496 18.086 25.2249 18.1578 25.8872 18.4322C26.5496 18.7066 27.1158 19.1712 27.5141 19.7673C27.9124 20.3634 28.125 21.0643 28.125 21.7812C28.1238 22.7423 27.7415 23.6636 27.0619 24.3432C26.3824 25.0227 25.4611 25.4051 24.5 25.4062Z" fill="#9BD7F1"/>
</svg>
