<svg width="50" height="50" viewBox="0 0 50 50" fill="none" xmlns="http://www.w3.org/2000/svg">
<path d="M40.2093 3H9.79067C6.04029 3 3 6.04029 3 9.79067V40.2093C3 43.9597 6.04029 47 9.79067 47H40.2093C43.9597 47 47 43.9597 47 40.2093V9.79067C47 6.04029 43.9597 3 40.2093 3Z" fill="#5865F2"/>
<path d="M41.3533 26.8628L41.2213 25.9241C40.7431 22.8118 39.7203 19.8082 38.2 17.0508C37.6684 16.1037 37.0756 15.1925 36.4253 14.3228C34.2698 13.3321 31.9906 12.6365 29.6493 12.2548C29.4293 12.8268 29.2386 13.4134 29.0626 14.0148C28.1435 13.8877 27.2049 13.7996 26.2466 13.7508H25H23.944C22.962 13.7932 21.983 13.8862 21.0106 14.0294C20.8346 13.4281 20.644 12.8414 20.424 12.2694C18.0583 12.6401 15.7541 13.3309 13.5746 14.3228C12.9243 15.1925 12.3315 16.1037 11.8 17.0508C10.2796 19.8082 9.25686 22.8118 8.77863 25.9241L8.64663 26.8628C8.51117 28.0067 8.44261 29.1575 8.4413 30.3094C8.4403 31.363 8.49907 32.4158 8.6173 33.4628C9.67848 34.2931 10.8068 35.0339 11.9906 35.6774C13.5892 36.5329 15.2696 37.2257 17.0066 37.7454C17.6591 36.8385 18.2566 35.8932 18.796 34.9148C17.786 34.5501 16.8054 34.1088 15.8626 33.5948C16.1706 33.3894 16.4786 33.1694 16.772 32.9348C17.5861 33.3313 18.4295 33.6647 19.2946 33.9321C23.0047 35.1248 26.9952 35.1248 30.7053 33.9321C31.6093 33.6565 32.4876 33.3032 33.3306 32.8761C33.6386 33.1108 33.932 33.3308 34.24 33.5361C33.2706 34.0842 32.2546 34.5456 31.204 34.9148C31.7433 35.8932 32.3409 36.8385 32.9933 37.7454C34.7584 37.22 36.4641 36.5122 38.0826 35.6334C39.24 35.0011 40.3437 34.2751 41.3826 33.4628C41.5009 32.4158 41.5596 31.363 41.5586 30.3094C41.5573 29.1575 41.4888 28.0067 41.3533 26.8628ZM22.536 26.3788C22.5505 26.9504 22.4243 27.5169 22.1686 28.0284C21.9128 28.5399 21.5353 28.9807 21.0693 29.3121C20.8109 29.4892 20.5228 29.6184 20.2186 29.6934C19.9986 29.7524 19.7717 29.782 19.544 29.7814C18.7087 29.7066 17.9354 29.3096 17.3879 28.6744C16.8403 28.0393 16.5615 27.2159 16.6106 26.3788C16.5655 25.5441 16.846 24.7244 17.3932 24.0925C17.9403 23.4605 18.7114 23.0655 19.544 22.9908C20.0261 23.0028 20.4979 23.1336 20.9174 23.3716C21.337 23.6095 21.6914 23.9472 21.9493 24.3548C22.3371 24.9582 22.541 25.6615 22.536 26.3788ZM30.456 29.7228C30.3048 29.7372 30.1525 29.7372 30.0013 29.7228C29.6172 29.6625 29.2514 29.5172 28.9306 29.2974C28.4655 28.9651 28.0887 28.5241 27.8331 28.0129C27.5775 27.5016 27.4507 26.9356 27.464 26.3641V26.1294C27.5044 25.4928 27.7063 24.877 28.0506 24.3401C28.3085 23.9325 28.6629 23.5948 29.0825 23.3569C29.502 23.119 29.9738 22.9882 30.456 22.9761C31.3017 23.0327 32.0911 23.4199 32.6537 24.0538C33.2163 24.6878 33.5069 25.5177 33.4626 26.3641C33.499 27.2056 33.2049 28.028 32.6431 28.6555C32.0813 29.2831 31.2963 29.6661 30.456 29.7228Z" fill="white"/>
</svg>
