<svg width="51" height="50" viewBox="0 0 51 50" fill="none" xmlns="http://www.w3.org/2000/svg">
<path d="M41.0838 40.625C40.5265 41.5938 40.7734 42.375 39.839 42.9135C38.9047 43.4531 37.8286 43.75 36.7088 43.75H15.063C13.9442 43.75 12.8692 43.4531 11.9338 42.9146C10.9984 42.376 11.2453 41.5938 10.688 40.625L18.6776 31.25H33.0942L41.0838 40.625Z" fill="#1E88E5"/>
<path d="M29.4931 7.2906C30.6109 7.28852 31.6848 6.54477 32.6192 7.08435C33.5536 7.62498 34.3484 8.40727 34.9077 9.37706L45.7306 28.1229C46.29 29.0916 46.5713 30.1719 46.5723 31.25C46.5734 32.3302 45.2525 33.4094 44.6911 34.376L33.1004 31.2458L25.8879 18.7531L29.4931 7.2906Z" fill="#FBC02D"/>
<path d="M46.5734 31.25C46.5734 32.3333 46.2922 33.4063 45.7297 34.375L41.9067 40.9896C41.3547 41.8021 40.6463 42.4479 39.8338 42.9167L33.0942 31.25H46.5734Z" fill="#E53935"/>
<path d="M7.08071 34.376C6.5203 33.4094 5.19946 32.3302 5.19946 31.251C5.2005 30.1719 5.48071 29.0917 6.04113 28.1219L16.864 9.37604C17.4234 8.40729 18.2182 7.62395 19.1515 7.08437C20.0859 6.54375 21.1609 7.2875 22.2786 7.28958L25.8818 18.7573L18.6713 31.2458L7.08071 34.376Z" fill="#4CAF50"/>
<path d="M18.6775 31.25L11.9379 42.9167C11.1254 42.4479 10.4171 41.8021 9.86503 40.9896L6.04211 34.375C5.47961 33.4063 5.19836 32.3333 5.19836 31.25H18.6775Z" fill="#1565C0"/>
<path d="M32.615 7.08333L25.8858 18.75L19.1462 7.08333C19.9587 6.61458 20.8754 6.32292 21.8546 6.26042L29.49 6.25C30.615 6.25 31.6879 6.54167 32.615 7.08333Z" fill="#2E7D32"/>
</svg>
