<svg width="30" height="25" viewBox="0 0 30 25" fill="none" xmlns="http://www.w3.org/2000/svg">
<g clip-path="url(#clip0_78:613)">
<path d="M3.74992 5.75C3.74992 5.55109 3.84869 5.36032 4.02451 5.21967C4.20032 5.07902 4.43878 5 4.68742 5L25.3124 5C25.4753 5.00002 25.6354 5.03401 25.7769 5.0986C25.9184 5.16319 26.0364 5.25617 26.1193 5.36836C26.2022 5.48056 26.2471 5.6081 26.2496 5.73841C26.2522 5.86872 26.2122 5.99731 26.1337 6.1115L15.8212 21.1115C15.7402 21.2291 15.6213 21.3272 15.4769 21.3954C15.3324 21.4637 15.1677 21.4998 14.9999 21.4998C14.8321 21.4998 14.6674 21.4637 14.5229 21.3954C14.3785 21.3272 14.2596 21.2291 14.1787 21.1115L3.86617 6.1115C3.78996 6.00076 3.74997 5.87641 3.74992 5.75Z" fill="#FFB0C3"/>
</g>
<defs>
<clipPath id="clip0_78:613">
<rect width="24" height="30" fill="white" transform="translate(30 0.5) rotate(90)"/>
</clipPath>
</defs>
</svg>
