<svg width="50" height="50" viewBox="0 0 50 50" fill="none" xmlns="http://www.w3.org/2000/svg">
<path d="M47 24.997C46.9986 13.294 37.8351 3.64073 26.1481 3.03041C14.461 2.42009 4.34191 11.0664 3.12148 22.7055C1.90105 34.3446 10.0066 44.902 21.566 46.7291V31.3508H15.9764V24.997H21.566V20.1533C21.566 14.6281 24.8442 11.5893 29.8537 11.5893C31.5042 11.6127 33.1509 11.7574 34.7802 12.0221V17.4367H32.0177C29.2551 17.4367 28.4356 19.1311 28.4356 20.8715V24.997H34.5409L33.5371 31.3508H28.4356V46.7291C39.1237 45.0318 46.9936 35.819 47 24.997Z" fill="#1877F2"/>
<path d="M33.5372 31.3509L34.5133 24.997H28.4357V20.8716C28.4357 19.1312 29.2921 17.4367 32.0179 17.4367H34.7804V12.0221C33.1511 11.7574 31.5044 11.6127 29.8538 11.5894C24.826 11.5894 21.5661 14.6374 21.5661 20.1533V24.997H15.9766V31.3509H21.5661V46.7292C23.8422 47.0853 26.1597 47.0853 28.4357 46.7292V31.3509H33.5372Z" fill="white"/>
</svg>
