<svg width="50" height="50" viewBox="0 0 50 50" fill="none" xmlns="http://www.w3.org/2000/svg">
<path fill-rule="evenodd" clip-rule="evenodd" d="M25.0592 33.2304C22.9526 33.227 20.9334 32.3885 19.444 30.8988C17.9547 29.4091 17.1167 27.3897 17.1138 25.2832C17.1162 23.176 17.9542 21.1558 19.444 19.6657C20.9339 18.1755 22.9538 17.337 25.061 17.3341C27.1685 17.3365 29.1889 18.1748 30.6791 19.665C32.1694 21.1552 33.0076 23.1757 33.0101 25.2832C33.0071 27.3903 32.1687 29.4103 30.6785 30.9001C29.1883 32.3899 27.1682 33.228 25.061 33.2304H25.0592Z" fill="#4285F4"/>
<path fill-rule="evenodd" clip-rule="evenodd" d="M28.4083 34.6433C26.7505 35.2449 24.9645 35.404 23.2265 35.1049C21.4885 34.8058 19.8585 34.0587 18.4973 32.9374C17.0297 31.7271 15.9329 30.1278 15.3324 28.3227L15.3287 28.3117L6.56905 13.1431C3.42771 17.9497 2.29915 23.7976 3.42627 29.4281C3.97976 32.2724 5.09186 34.9788 6.69821 37.3906C8.30456 39.8023 10.3733 41.8715 12.7846 43.4785C15.3164 45.1805 18.1757 46.335 21.1795 46.8681L28.4083 34.6452V34.6433Z" fill="#4AAE48"/>
<path fill-rule="evenodd" clip-rule="evenodd" d="M44.9309 15.3481C43.2739 12.0146 40.8071 9.15001 37.7563 7.01667C34.7056 4.88333 31.1684 3.54939 27.4687 3.13699C23.769 2.72458 20.0249 3.24689 16.5793 4.65609C13.1337 6.06529 10.0966 8.31635 7.74622 11.2032L15.1445 24.0175C15.449 21.6449 16.5992 19.4618 18.3841 17.8692C20.1689 16.2766 22.4684 15.3814 24.8602 15.3481H44.9309Z" fill="#EA3939"/>
<path fill-rule="evenodd" clip-rule="evenodd" d="M24.9726 47.2053C30.5176 47.2053 35.825 45.1254 39.9128 41.3508C44.0163 37.5716 46.5294 32.3736 46.9426 26.8104C47.1805 23.5895 46.7128 20.3555 45.572 17.3341H31.0997C32.3054 18.2879 33.2786 19.5032 33.9456 20.8883C34.6126 22.2734 34.956 23.7919 34.9499 25.3292C34.9353 27.5895 34.1693 29.7806 32.7725 31.5577L23.5468 47.1611C24.022 47.1905 24.501 47.2053 24.9726 47.2053Z" fill="#FED14B"/>
</svg>
