<svg width="29" height="29" viewBox="0 0 29 29" fill="none" xmlns="http://www.w3.org/2000/svg">
<rect width="29" height="29" rx="5" fill="#FF537C"/>
<rect width="23" height="23" transform="translate(3 3)" fill="#FF537C"/>
<path d="M24.6355 8.64078C23.4409 9.65134 22.265 9.41523 21.6192 9.15073C22.3983 8.64006 23.0941 8.16748 23.4373 7.74522C24.528 6.40259 24.9122 3.72956 24.1647 3.72956C23.558 3.72956 24.4392 6.10395 21.9445 7.85267C22.4569 6.01195 21.5624 3.89667 20.9342 3.72956C20.7883 3.69111 20.2877 3.72956 20.6647 4.27976C21.8988 6.08059 21.3421 7.7215 20.9245 8.51248C20.2899 8.92612 19.6976 9.33905 19.1593 9.75916C19.5244 8.637 19.5967 7.44013 19.3692 6.2822C18.9979 4.39656 20.1961 4.87884 19.8921 4.06953C19.6948 3.54484 18.3744 4.20394 18.5789 5.5613C18.7086 6.42308 18.962 7.16195 18.8111 8.31914C18.4413 8.16892 17.5906 7.74558 16.9987 6.84139C16.1635 5.56705 14.992 7.29061 18.6418 9.16439C18.5653 9.458 18.4614 9.77892 18.3313 10.1279C17.2905 10.6982 16.6221 11.5402 16.1959 12.3693C15.5882 12.2622 15.0118 12.2511 14.5 12.2511C13.9886 12.2511 13.4125 12.2622 12.8048 12.3693C12.3779 11.5399 11.7098 10.6982 10.6691 10.1279C10.5492 9.81222 10.4456 9.49064 10.3586 9.16439C14.008 7.29061 12.8368 5.56705 12.0016 6.84139C11.4097 7.74594 10.5587 8.16892 10.1889 8.31914C10.038 7.16195 10.2914 6.42344 10.4211 5.5613C10.6252 4.20394 9.30559 3.54484 9.10794 4.06953C8.80391 4.87884 10.0021 4.39656 9.63047 6.2822C9.40329 7.4402 9.47578 8.63704 9.84106 9.75916C9.30272 9.33905 8.71011 8.92648 8.07653 8.51248C7.65822 7.7215 7.10191 6.08023 8.33528 4.27976C8.71262 3.72956 8.21166 3.69075 8.06611 3.72956C7.43792 3.89667 6.5438 6.01195 7.05591 7.85267C4.56148 6.10431 5.44159 3.72956 4.83569 3.72956C4.08783 3.72956 4.47164 6.40259 5.56234 7.74522C5.90627 8.16748 6.60238 8.64006 7.3815 9.15073C6.73498 9.41523 5.55947 9.65134 4.36455 8.64078C4.22152 8.51895 3.71875 8.27278 3.71875 8.89055C3.71875 9.39367 5.12103 10.5832 6.9233 10.2192C6.94737 10.8495 7.22194 14.3164 10.2874 15.6392C10.2547 15.8527 10.1782 16.0996 10.015 16.3799C9.09105 17.9662 9.51511 19.6829 11.179 21.0902C11.4399 21.3105 11.4953 21.7095 11.556 22.3402C11.6354 23.157 11.7432 24.2761 12.9119 24.8648C13.4733 25.1451 13.9918 25.2813 14.5 25.2813C15.0082 25.2813 15.5275 25.1451 16.0866 24.8651C17.2575 24.2754 17.3653 23.157 17.4436 22.3398C17.5044 21.7095 17.5597 21.3105 17.8203 21.0906C19.4849 19.6833 19.909 17.9666 18.9843 16.3799C18.8211 16.1 18.7449 15.8531 18.7122 15.6396C21.7773 14.3167 22.0519 10.8495 22.076 10.2195C23.8783 10.5836 25.2812 9.39367 25.2812 8.89055C25.2812 8.27278 24.7788 8.51895 24.6355 8.64078V8.64078ZM17.978 15.1695C17.9529 15.6022 18.0068 16.1183 18.3586 16.7213C19.2675 18.281 18.4373 19.6452 17.3477 20.5663C16.2591 21.4863 17.2643 23.488 15.7564 24.247C15.4103 24.4202 14.9794 24.5852 14.5 24.5852C14.0206 24.5852 13.5901 24.4202 13.244 24.247C11.7364 23.488 12.7412 21.4859 11.6523 20.5663C10.5638 19.6452 9.73253 18.281 10.6414 16.7213C10.9932 16.1179 11.0475 15.6019 11.0223 15.1692C7.66397 14.0889 7.63953 10.12 7.63953 10.12C10.516 10.12 11.8079 11.73 12.3898 13.1793C12.5252 13.1402 12.6593 13.1132 12.7937 13.0859C12.4045 13.6174 12.297 14.2866 12.9435 15.5498C13.8722 17.3635 13.5426 20.6511 14.5004 20.6511C15.4585 20.6511 15.1293 17.3635 16.0572 15.5498C16.7037 14.2862 16.5966 13.6174 16.2074 13.0859C16.3414 13.1132 16.4758 13.1398 16.6117 13.1793C17.1935 11.7307 18.4851 10.12 21.3608 10.12C21.3605 10.1203 21.336 14.0893 17.978 15.1695" fill="#FFFFEC"/>
<path d="M11.1513 14.2495C10.8797 13.9725 10.2809 13.4183 11.1495 13.7442C12.0189 14.0702 11.1513 13.4456 10.9885 13.1685C10.825 12.8915 11.9959 13.5013 11.9959 13.5013C10.5311 10.8685 8.53796 10.8685 8.53796 10.8685C8.5376 13.778 11.4234 14.5262 11.1513 14.2495" fill="#FFFFEC"/>
<path d="M18.0114 13.1685C17.8487 13.4456 16.9811 14.0702 17.8508 13.7442C18.7198 13.4183 18.1211 13.9725 17.8487 14.2495C17.5762 14.5266 20.4617 13.778 20.4617 10.8685C20.4617 10.8685 18.4689 10.8685 17.0041 13.5013C17.0045 13.5013 18.176 12.8915 18.0114 13.1685" fill="#FFFFEC"/>
<path d="M16.1341 22.2553C16.1341 21.8675 15.2083 21.7561 14.5 21.7561C13.792 21.7561 12.8666 21.8675 12.8666 22.2553C12.8666 22.6208 13.446 23.4024 14.3315 23.493V23.8362C13.6892 23.7995 13.1947 23.5311 13.1556 23.6281C13.1045 23.7169 13.6781 24.2642 14.5 24.2595C15.3219 24.2642 15.8962 23.7169 15.8448 23.6281C15.8056 23.5314 15.3107 23.7999 14.6685 23.8362V23.493C15.5548 23.4024 16.1341 22.6208 16.1341 22.2553Z" fill="#FFFFEC"/>
<path d="M11.3167 16.9057C10.9835 16.9625 10.7815 17.3812 10.8653 17.8415C10.949 18.3012 11.2868 18.6278 11.6203 18.571C11.9531 18.5143 12.1551 18.0956 12.071 17.6352C11.9869 17.1756 11.6494 16.8489 11.3167 16.9057Z" fill="#FFFFEC"/>
<path d="M17.6837 16.9057C17.3509 16.8489 17.0128 17.1756 16.929 17.6356C16.8449 18.0956 17.0469 18.5143 17.3804 18.5714C17.7132 18.6282 18.0506 18.3015 18.1351 17.8419C18.2195 17.3815 18.0172 16.9628 17.6837 16.9057Z" fill="#FFFFEC"/>
<path d="M11.4971 15.9076C11.4511 15.9691 12.1554 16.4287 12.4117 17.2858C12.6945 18.1358 12.3761 18.898 12.4498 18.9246C12.5109 18.9799 12.9985 18.1785 12.6844 17.2053C12.3826 16.2289 11.5154 15.8282 11.4971 15.9076" fill="#FFFFEC"/>
<path d="M17.5033 15.9076C17.485 15.8282 16.6174 16.2289 16.3148 17.205C16.0011 18.1782 16.4895 18.9796 16.5499 18.9242C16.6235 18.898 16.3055 18.1358 16.5883 17.2855C16.8449 16.4287 17.5489 15.9691 17.5033 15.9076" fill="#FFFFEC"/>
</svg>
