<svg width="50" height="50" fill="none" xmlns="http://www.w3.org/2000/svg"><path d="M17.637 24.956a7.3 7.3 0 0 1 7.319-7.319 7.3 7.3 0 0 1 7.319 7.319 7.3 7.3 0 0 1-7.32 7.319 7.3 7.3 0 0 1-7.318-7.32Zm-3.968 0c0 6.26 5.026 11.287 11.287 11.287 6.26 0 11.287-5.027 11.287-11.287 0-6.26-5.027-11.287-11.287-11.287a11.252 11.252 0 0 0-11.287 11.287Zm20.37-11.727c0 1.41 1.145 2.645 2.644 2.645 1.411 0 2.646-1.147 2.646-2.646 0-1.498-1.147-2.645-2.646-2.645-1.499 0-2.645 1.235-2.645 2.646ZM16.05 42.855c-2.116-.089-3.262-.441-4.056-.794-1.058-.44-1.764-.882-2.557-1.675-.794-.794-1.235-1.5-1.675-2.557-.265-.794-.618-1.94-.794-4.056v-8.818c0-5.82 0-6.525.088-8.906.088-2.116.441-3.262.794-4.056.44-1.058.881-1.764 1.675-2.557.794-.794 1.499-1.235 2.557-1.675.794-.265 1.94-.618 4.056-.794 2.293-.088 2.998-.088 8.906-.088s6.525 0 8.906.088c2.116.088 3.262.44 4.056.794 1.058.44 1.764.881 2.557 1.675.794.793 1.235 1.499 1.675 2.557.265.794.618 1.94.794 4.056.088 2.293.088 2.998.088 8.906s0 6.525-.088 8.906c-.088 2.116-.44 3.262-.794 4.056-.44 1.058-.881 1.763-1.675 2.557-.793.794-1.499 1.234-2.557 1.675-.794.265-1.94.617-4.056.794-2.293.088-2.998.088-8.906.088s-6.613-.088-8.994-.176Zm-.176-39.68c-2.293.089-3.968.441-5.29 1.058-1.412.53-2.646 1.323-3.88 2.558-1.235 1.234-1.94 2.469-2.558 3.88-.529 1.41-.881 2.997-1.058 5.29C3 18.255 3 18.96 3 24.956c0 5.996 0 6.701.176 9.082.089 2.293.441 3.968 1.058 5.29.53 1.411 1.323 2.646 2.558 3.88 1.234 1.235 2.469 1.94 3.88 2.558 1.41.529 2.997.881 5.29 1.058 2.38.088 3.086.176 9.082.176s6.701 0 9.082-.176c2.293-.088 3.968-.441 5.29-1.058 1.412-.53 2.646-1.323 3.88-2.558 1.235-1.234 1.94-2.468 2.558-3.88.529-1.41.882-2.997 1.058-5.29.088-2.38.088-3.086.088-9.082s0-6.701-.088-9.082c-.088-2.293-.441-3.968-1.058-5.29-.53-1.412-1.323-2.646-2.557-3.88-1.235-1.235-2.47-1.94-3.88-2.558-1.411-.529-2.998-.881-5.29-1.058C31.656 3 30.951 3 24.955 3c-5.996 0-6.701 0-9.082.176Z" fill="url(#a)"/><defs><linearGradient id="a" x1="47" y1="3" x2="3" y2="47" gradientUnits="userSpaceOnUse"><stop stop-color="#4431FF"/><stop offset=".568" stop-color="#EA4F6E"/><stop offset="1" stop-color="#FFCD00"/></linearGradient></defs></svg>