<svg width="50" height="50" viewBox="0 0 50 50" fill="none" xmlns="http://www.w3.org/2000/svg">
<path d="M44.2264 38.3088C43.5058 39.9735 42.6529 41.5059 41.6647 42.9147C40.3176 44.8353 39.2147 46.1647 38.3647 46.9029C37.047 48.1147 35.6353 48.7353 34.1235 48.7706C33.0382 48.7706 31.7294 48.4617 30.2058 47.8353C28.6773 47.2117 27.2726 46.9029 25.9882 46.9029C24.6411 46.9029 23.1964 47.2117 21.6511 47.8353C20.1035 48.4617 18.8567 48.7882 17.9035 48.8206C16.4538 48.8823 15.0088 48.2441 13.5664 46.9029C12.6458 46.1 11.4944 44.7235 10.115 42.7735C8.63496 40.6912 7.41819 38.2764 6.46496 35.5235C5.44408 32.55 4.93231 29.6706 4.93231 26.8829C4.93231 23.6897 5.62231 20.9356 7.00437 18.6276C8.09055 16.7738 9.53555 15.3114 11.3441 14.2379C13.1526 13.1644 15.1067 12.6173 17.2111 12.5823C18.3626 12.5823 19.8726 12.9385 21.7491 13.6385C23.6203 14.3409 24.8217 14.697 25.3485 14.697C25.7423 14.697 27.077 14.2806 29.3397 13.4503C31.4794 12.6803 33.2853 12.3614 34.7647 12.487C38.7735 12.8106 41.7853 14.3909 43.7882 17.2379C40.2029 19.4103 38.4294 22.4529 38.4647 26.3561C38.497 29.3964 39.6 31.9264 41.7676 33.9353C42.75 34.8676 43.847 35.5882 45.0676 36.1C44.8029 36.8676 44.5235 37.6029 44.2264 38.3088ZM35.0323 2.12938C35.0323 4.51235 34.1617 6.73732 32.4264 8.79674C30.3323 11.245 27.7994 12.6597 25.0526 12.4364C25.0176 12.1506 24.9973 11.8497 24.9973 11.5335C24.9973 9.24585 25.9932 6.79762 27.7617 4.79585C28.6447 3.78232 29.7676 2.93959 31.1294 2.26732C32.4882 1.60509 33.7735 1.23885 34.9823 1.17615C35.0176 1.49471 35.0323 1.81329 35.0323 2.12935V2.12938Z" fill="black"/>
</svg>
