<svg width="50" height="51" viewBox="0 0 50 51" fill="none" xmlns="http://www.w3.org/2000/svg">
<path d="M41.6667 23.5035C40.5161 23.5035 39.5833 24.4362 39.5833 25.5868C39.5833 26.7374 40.5161 27.6702 41.6667 27.6702C42.8173 27.6702 43.75 26.7374 43.75 25.5868C43.75 24.4362 42.8173 23.5035 41.6667 23.5035Z" fill="#FF537C" stroke="#FF537C" stroke-width="1.91667"/>
<path d="M25 23.5035C23.8494 23.5035 22.9167 24.4362 22.9167 25.5868C22.9167 26.7374 23.8494 27.6702 25 27.6702C26.1506 27.6702 27.0834 26.7374 27.0834 25.5868C27.0834 24.4362 26.1506 23.5035 25 23.5035Z" fill="#FF537C" stroke="#FF537C" stroke-width="1.91667"/>
<path d="M8.33329 23.5035C7.1827 23.5035 6.24996 24.4362 6.24996 25.5868C6.24996 26.7374 7.1827 27.6702 8.33329 27.6702C9.48389 27.6702 10.4166 26.7374 10.4166 25.5868C10.4166 24.4362 9.48389 23.5035 8.33329 23.5035Z" fill="#FF537C" stroke="#FF537C" stroke-width="1.91667"/>
</svg>
