<svg width="75" height="22" viewBox="0 0 75 22" fill="none" xmlns="http://www.w3.org/2000/svg">
<path d="M4.088 21C4.376 21 4.952 21.072 4.952 20.64C4.952 20.304 3.44 15.984 3.44 9.72C3.44 9.216 3.416 6.264 4.208 6.264C4.952 6.264 5.744 8.688 5.984 9.216C8.12 14.136 7.328 16.392 9.344 16.392C10.952 16.392 10.136 14.136 12.152 9.216C12.392 8.64 13.304 6.264 14 6.264C14.792 6.264 14.72 9.216 14.72 9.72C14.72 15.984 13.352 20.304 13.352 20.64C13.352 21.072 13.928 21 14.216 21H17.288C17.888 21 18.608 21.456 18.608 12.456C18.608 0.599999 17.36 1.032 16.952 1.032H15.08C14.144 1.032 13.784 1.008 12.44 2.64C9.896 5.736 9.752 7.488 9.392 7.488C8.912 7.488 8.768 5.736 6.512 2.64C5.336 1.032 5 1.032 4.064 1.032H1.856C1.448 1.032 0.2 0.599999 0.2 12.456C0.2 21.456 0.92 21 1.52 21H4.088ZM27.5405 21.36C30.3005 21.36 33.5645 18.936 33.5645 13.296C33.5645 9.432 31.7165 5.28 27.5405 5.28C23.3645 5.28 21.5165 9.432 21.5165 13.296C21.5165 18.936 24.7805 21.36 27.5405 21.36ZM27.5405 17.352C25.1165 17.352 24.4925 14.616 24.4925 12.696C24.4925 10.8 25.1645 8.112 27.5405 8.112C29.9165 8.112 30.5885 10.8 30.5885 12.696C30.5885 14.616 29.9645 17.352 27.5405 17.352ZM41.7952 21.36C44.5552 21.36 47.8192 18.936 47.8192 13.296C47.8192 9.432 45.9712 5.28 41.7952 5.28C37.6192 5.28 35.7712 9.432 35.7712 13.296C35.7712 18.936 39.0352 21.36 41.7952 21.36ZM41.7952 17.352C39.3712 17.352 38.7472 14.616 38.7472 12.696C38.7472 10.8 39.4192 8.112 41.7952 8.112C44.1712 8.112 44.8432 10.8 44.8432 12.696C44.8432 14.616 44.2192 17.352 41.7952 17.352ZM55.5219 21.36C58.4019 21.36 60.9939 19.584 60.9939 16.464C60.9939 11.592 53.9859 11.64 53.9859 9.168C53.9859 8.448 54.9939 8.112 55.7379 8.112C57.9459 8.112 58.0899 9.96 58.7139 9.96C59.2659 9.96 60.6099 8.016 60.6099 7.56C60.6099 7.08 58.9539 5.28 55.9539 5.28C53.3619 5.28 51.0099 6.864 51.0099 9.792C51.0099 14.568 57.4899 13.92 57.4899 16.392C57.4899 17.616 56.3379 18.12 55.3539 18.12C51.9459 18.12 51.3459 14.496 51.2259 14.496C51.0339 14.496 50.4579 15.936 50.4579 17.064C50.4579 19.872 52.9779 21.36 55.5219 21.36ZM69.6963 21.36C72.5763 21.36 74.9283 19.608 74.9283 16.56C74.9283 16.368 74.8563 15.12 74.4963 15.12C74.1603 15.12 74.1603 18.12 70.2243 18.12C69.0243 18.12 67.2003 17.304 67.2003 16.176C67.2003 13.68 74.9283 14.76 74.9283 9.6C74.9283 6.768 72.6963 5.28 70.0563 5.28C66.8403 5.28 63.6243 8.16 63.6243 13.968C63.6243 17.808 65.4003 21.36 69.6963 21.36ZM69.9363 8.112C70.8483 8.112 71.9523 8.76 71.9523 9.936C71.9523 11.16 67.5843 12.12 67.2963 12.12C66.9843 12.12 66.8643 11.856 66.8643 11.592C66.8643 10.2 67.9923 8.112 69.9363 8.112Z" fill="#FF537C"/>
</svg>
