<svg width="50" height="50" viewBox="0 0 50 50" fill="none" xmlns="http://www.w3.org/2000/svg">
<circle cx="25" cy="25" r="20" fill="#FFB0C3" stroke="#FFB0C3" stroke-width="10"/>
<path d="M18.6135 33.5814C18.4194 33.5814 18.2333 33.5043 18.0961 33.3671C17.9589 33.2299 17.8818 33.0438 17.8818 32.8497V16.7535C17.8819 16.6264 17.915 16.5014 17.978 16.391C18.041 16.2806 18.1317 16.1885 18.2412 16.1238C18.3506 16.0591 18.4751 16.024 18.6022 16.0221C18.7293 16.0201 18.8547 16.0513 18.9661 16.1126L33.5991 24.1607C33.7138 24.2238 33.8094 24.3166 33.8761 24.4294C33.9427 24.5421 33.9778 24.6707 33.9778 24.8016C33.9778 24.9326 33.9427 25.0611 33.8761 25.1738C33.8094 25.2866 33.7138 25.3794 33.5991 25.4425L18.9661 33.4906C18.8581 33.5501 18.7368 33.5813 18.6135 33.5814Z" fill="#FFFFEC"/>
</svg>
