<svg width="49" height="49" viewBox="0 0 49 49" fill="none" xmlns="http://www.w3.org/2000/svg">
<rect width="49" height="49" rx="24.5" fill="white"/>
<path d="M33.19 31.4225C32.2537 30.4863 32.055 29.0863 32.565 27.865L32.5912 27.8038C33.09 26.5863 34.2275 25.75 35.5437 25.75H35.6438C36.4413 25.75 37 25.1913 37 24.5C37 23.8088 36.4412 23.25 35.75 23.25H35.5375C34.2213 23.25 33.09 22.4138 32.5912 21.195L32.565 21.1338C32.055 19.9125 32.2537 18.5125 33.19 17.5763L33.3387 17.4275C33.4548 17.3114 33.5469 17.1737 33.6097 17.022C33.6725 16.8704 33.7048 16.7079 33.7048 16.5438C33.7048 16.3796 33.6725 16.2171 33.6097 16.0655C33.5469 15.9138 33.4548 15.7761 33.3387 15.66C33.2227 15.5439 33.0849 15.4519 32.9333 15.3891C32.7816 15.3263 32.6191 15.2939 32.455 15.2939C32.2909 15.2939 32.1284 15.3263 31.9767 15.3891C31.8251 15.4519 31.6873 15.5439 31.5712 15.66L31.4225 15.8088C30.4862 16.745 29.0863 16.9438 27.865 16.4338L27.8037 16.4075C26.5862 15.91 25.75 14.7725 25.75 13.4563V13.355C25.75 12.5588 25.1912 12 24.5 12C23.8088 12 23.25 12.5588 23.25 13.25V13.295C23.25 14.665 22.425 15.9 21.1587 16.4238L21.1512 16.4275C20.5323 16.6837 19.8512 16.7506 19.1942 16.6198C18.5371 16.489 17.9336 16.1663 17.46 15.6925L17.4288 15.6613L14.1337 12.3663L12.3662 14.1338L34.8662 36.6338L36.6338 34.8663L33.3387 31.5713L33.19 31.4225ZM24.5 22C24.5 21.5055 24.6466 21.0222 24.9213 20.6111C25.196 20.2 25.5865 19.8795 26.0433 19.6903C26.5001 19.5011 27.0028 19.4516 27.4877 19.548C27.9727 19.6445 28.4181 19.8826 28.7678 20.2322C29.1174 20.5819 29.3555 21.0273 29.452 21.5123C29.5484 21.9972 29.4989 22.4999 29.3097 22.9567C29.1205 23.4135 28.8 23.804 28.3889 24.0787C27.9778 24.3534 27.4945 24.5 27 24.5C26.6788 24.5 26.3738 24.4338 26.09 24.3225L24.6762 22.9088C24.5614 22.6195 24.5016 22.3113 24.5 22ZM19.5 25.75C19.1685 25.75 18.8505 25.6183 18.6161 25.3839C18.3817 25.1495 18.25 24.8315 18.25 24.5C18.2547 24.2077 18.3628 23.9265 18.555 23.7063L16.2888 21.44C16.0149 21.9831 15.5958 22.4398 15.0782 22.7593C14.5606 23.0788 13.9645 23.2486 13.3563 23.25H13.355C12.5588 23.25 12 23.8088 12 24.5C12 25.1913 12.5588 25.75 13.25 25.75H13.335C13.9932 25.7498 14.6367 25.945 15.1839 26.3109C15.731 26.6767 16.1573 27.1967 16.4088 27.805L16.435 27.8663C16.6888 28.4802 16.7551 29.1557 16.6254 29.8073C16.4957 30.4589 16.1758 31.0575 15.7063 31.5275L15.6612 31.5725C15.4269 31.8069 15.2952 32.1248 15.2952 32.4563C15.2952 32.7877 15.4269 33.1056 15.6612 33.34C15.8956 33.5744 16.2135 33.7061 16.545 33.7061C16.8765 33.7061 17.1944 33.5744 17.4288 33.34L17.4738 33.295C17.9437 32.8253 18.5423 32.5053 19.1939 32.3756C19.8456 32.2459 20.521 32.3123 21.135 32.5663L21.3138 32.6413C21.8871 32.878 22.3771 33.2796 22.7219 33.7952C23.0666 34.3109 23.2504 34.9173 23.25 35.5375V35.6438C23.25 36.4413 23.8088 37 24.5 37C25.1912 37 25.75 36.44 25.75 35.75V35.5375C25.75 34.3175 26.46 33.2213 27.5538 32.705L20.2925 25.4438C20.0733 25.6371 19.7922 25.7457 19.5 25.75Z" fill="#FFB0C3"/>
</svg>
