<svg width="50" height="50" viewBox="0 0 50 50" fill="none" xmlns="http://www.w3.org/2000/svg">
<path d="M3 25.0003C3 34.0089 8.41714 41.748 16.1688 45.1506C16.107 43.6144 16.1578 41.7702 16.5518 40.0987C16.9748 38.3128 19.3825 28.1108 19.3825 28.1108C19.3825 28.1108 18.6798 26.7061 18.6798 24.63C18.6798 21.3698 20.5693 18.9348 22.9226 18.9348C24.9238 18.9348 25.8906 20.4379 25.8906 22.2377C25.8906 24.2493 24.6075 27.2583 23.9477 30.0453C23.3965 32.379 25.1178 34.2825 27.4201 34.2825C31.5884 34.2825 34.3958 28.9288 34.3958 22.5856C34.3958 17.7638 31.1482 14.1548 25.2414 14.1548C18.5679 14.1548 14.4104 19.1316 14.4104 24.6907C14.4104 26.6075 14.9755 27.9591 15.8607 29.0058C16.2677 29.4865 16.3242 29.6799 16.1769 30.2319C16.0714 30.6367 15.829 31.6112 15.7287 31.9974C15.5822 32.5546 15.1307 32.7539 14.6271 32.5481C11.5533 31.2933 10.1218 27.9271 10.1218 24.1431C10.1218 17.8936 15.3925 10.3999 25.8452 10.3999C34.2447 10.3999 39.773 16.478 39.773 23.0026C39.773 31.6329 34.975 38.0804 27.9024 38.0804C25.5272 38.0804 23.293 36.7965 22.5277 35.3382C22.5277 35.3382 21.2505 40.4071 20.9799 41.3859C20.5135 43.0821 19.6005 44.7775 18.7657 46.0989C20.7443 46.6829 22.8345 47.001 25.0008 47.001C37.1495 47.001 47 37.1511 47 25.0003C47 12.8499 37.1495 3 25.0008 3C12.8508 3 3 12.8499 3 25.0003Z" fill="#CB1F27"/>
</svg>
