<svg width="50" height="50" viewBox="0 0 50 50" fill="none" xmlns="http://www.w3.org/2000/svg">
<circle r="20" transform="matrix(-1 0 0 1 25 25)" fill="#FFB0C3" stroke="#FFB0C3" stroke-width="10"/>
<path d="M31.3864 33.5814C31.5804 33.5814 31.7665 33.5043 31.9037 33.3671C32.041 33.2299 32.118 33.0438 32.118 32.8497V16.7535C32.118 16.6264 32.0849 16.5014 32.0219 16.391C31.9588 16.2806 31.8681 16.1885 31.7587 16.1238C31.6492 16.0591 31.5248 16.024 31.3977 16.0221C31.2706 16.0201 31.1451 16.0513 31.0337 16.1126L16.4008 24.1607C16.2861 24.2238 16.1904 24.3166 16.1238 24.4294C16.0572 24.5421 16.022 24.6707 16.022 24.8016C16.022 24.9326 16.0572 25.0611 16.1238 25.1738C16.1904 25.2866 16.2861 25.3794 16.4008 25.4425L31.0337 33.4906C31.1418 33.5501 31.2631 33.5813 31.3864 33.5814Z" fill="#FFFFEC"/>
</svg>
