<svg width="50" height="51" fill="none" xmlns="http://www.w3.org/2000/svg"><path d="M17 28.587c6.628 0 12-5.149 12-11.5s-5.372-11.5-12-11.5c-6.627 0-12 5.149-12 11.5s5.373 11.5 12 11.5Z" fill="url(#a)"/><path d="M33 45.587c6.627 0 12-5.149 12-11.5s-5.373-11.5-12-11.5-12 5.149-12 11.5 5.373 11.5 12 11.5Z" fill="url(#b)"/><path d="M25 44.587c10.493 0 19-8.507 19-19s-8.507-19-19-19-19 8.507-19 19 8.507 19 19 19Z" fill="url(#c)"/><path d="M30.26 19.05c-.333-.133-.752-.265-1.132-.4-.38-.137-.791-.253-1.187-.36a14.064 14.064 0 0 0-1.187-.27c-.393-.06-.79-.09-1.187-.091a4.704 4.704 0 0 0-2.081.524 2.338 2.338 0 0 0-.637.4c-.126.132-.22.29-.277.465-.053.19-.085.386-.095.584-.015.125-.022.25-.02.376v.312c.02.16.055.316.103.468.079.183.184.353.313.505.435.473.948.867 1.515 1.164.328.188.68.369 1.052.545l1.188.508c.905.35 1.79.75 2.65 1.2.498.261.97.567 1.413.913.513.402.963.881 1.334 1.42.397.588.675 1.25.819 1.946a7.09 7.09 0 0 1 .142 1.925c0 .152 0 .292-.036.44-.035.148-.051.36-.09.54a4.864 4.864 0 0 1-1.713 2.765 7.189 7.189 0 0 1-3.253 1.417c-.514.1-1.033.166-1.555.196a14.87 14.87 0 0 1-1.52.04 13.875 13.875 0 0 1-3.01-.36 8.057 8.057 0 0 1-3.127-1.413 1.794 1.794 0 0 1-.367-2.423 1.748 1.748 0 0 1 2.373-.498l.34.224a6.386 6.386 0 0 0 1.659.712c.707.213 1.436.348 2.172.4a5.42 5.42 0 0 0 2.156-.303 3.066 3.066 0 0 0 1.42-.981 1.35 1.35 0 0 0 .23-.664v-.349a2.498 2.498 0 0 0-.06-.728 1.837 1.837 0 0 0-.193-.54 3.536 3.536 0 0 0-1.187-1.097 15.043 15.043 0 0 0-2.117-1.024c-.791-.32-1.681-.645-2.591-1.069a9.162 9.162 0 0 1-2.77-1.893 5.745 5.745 0 0 1-1.136-1.693 5.481 5.481 0 0 1-.423-2.08 6.476 6.476 0 0 1 .289-1.894 5.397 5.397 0 0 1 2.445-3.121 7.047 7.047 0 0 1 1.686-.7c.53-.159 1.069-.284 1.614-.377.265-.044.526-.08.791-.104.265-.024.519-.02.792-.02.496.012.992.055 1.483.128.483.059.961.148 1.433.268.463.12.922.248 1.377.4.472.134.913.361 1.297.669l.396.308c.595.482.753 1.33.373 1.998a1.535 1.535 0 0 1-1.896.675l-.008.016Z" fill="#fff"/><defs><linearGradient id="b" x1="33" y1="45.587" x2="33" y2="22.587" gradientUnits="userSpaceOnUse"><stop stop-color="#007BCF"/><stop offset="1" stop-color="#00B4E9"/></linearGradient><linearGradient id="c" x1="25" y1="44.587" x2="25" y2="6.587" gradientUnits="userSpaceOnUse"><stop stop-color="#007BCF"/><stop offset="1" stop-color="#00B4E9"/></linearGradient><radialGradient id="a" cx="0" cy="0" r="1" gradientUnits="userSpaceOnUse" gradientTransform="rotate(-120.619 1.966 -7.462) scale(15.1136 14.7262)"><stop stop-color="#007BCF"/><stop offset=".86" stop-color="#00B4E9"/></radialGradient></defs></svg>