<svg width="50" height="50" viewBox="0 0 50 50" fill="none" xmlns="http://www.w3.org/2000/svg">
<path d="M3.00011 36.1231C2.99693 37.1126 3.06439 38.1011 3.2021 39.081C3.33825 40.118 3.63434 41.1277 4.07983 42.074C4.7253 43.3386 5.64609 44.4423 6.77445 45.304C7.5611 45.9365 8.45223 46.4266 9.40763 46.7523C10.829 47.1902 12.3089 47.4093 13.7963 47.4019H16.5874C23.3635 47.4019 30.1307 47.4545 36.8981 47.4019C37.7823 47.3786 38.663 47.2818 39.5312 47.1122C41.1921 46.8241 42.7378 46.0726 43.9901 44.9442C45.4702 43.6605 46.5031 41.939 46.9393 40.0289C47.208 38.7505 47.3375 37.4469 47.3254 36.1406V35.8773C47.3254 35.7807 47.3254 13.6971 47.3254 13.3987C47.338 12.5934 47.2792 11.7886 47.1499 10.9938C46.9982 10.0331 46.7023 9.10103 46.2722 8.22888C45.7976 7.31094 45.1748 6.47761 44.429 5.76247C43.3011 4.66236 41.9115 3.86787 40.3914 3.45405C38.9956 3.11657 37.5611 2.96603 36.1256 3.00641H14.3142C13.4965 2.99762 12.6791 3.03278 11.8653 3.11174C10.9681 3.20769 10.0848 3.40498 9.23208 3.69981C7.9275 4.18659 6.75086 4.96401 5.7914 5.97313C4.68042 7.10102 3.88188 8.49845 3.4742 10.0282C3.13387 11.4117 2.98036 12.8346 3.01778 14.2589" fill="#FFFC00"/>
<path d="M38.6973 32.5858C33.8698 30.2511 33.1062 26.6348 33.1062 26.3715C33.0243 26.051 33.1294 25.7117 33.3783 25.4938C33.7206 25.1778 35.2566 24.2298 35.678 23.9314C36.3801 23.4399 36.6874 22.9572 36.4592 22.3515C36.3019 21.9704 35.9125 21.7382 35.5024 21.781C35.3769 21.768 35.2504 21.768 35.125 21.781C34.3526 21.9478 33.5978 22.3428 33.1677 22.4393C33.1153 22.4477 33.062 22.4477 33.0097 22.4393C32.7727 22.4393 32.6937 22.3339 32.7113 22.0531C32.808 20.7149 32.808 19.3713 32.7113 18.0331C32.6607 16.5128 32.0658 15.0613 31.0348 13.9429C29.5715 12.349 27.4831 11.4765 25.3208 11.5555C23.1637 11.4815 21.0812 12.3498 19.6156 13.9341C18.5859 15.0534 17.9912 16.5044 17.9391 18.0243C17.8424 19.3655 17.8424 20.7119 17.9391 22.0531C17.9391 22.3164 17.8777 22.4305 17.6407 22.4305H17.4827C17.0526 22.3252 16.2977 21.939 15.5341 21.7722C15.4072 21.7446 15.2778 21.73 15.1479 21.7283C14.7392 21.6913 14.353 21.9216 14.1912 22.2988C13.963 22.9044 14.2702 23.396 14.9724 23.8875C15.4025 24.1772 16.9297 25.1251 17.2721 25.4499C17.5209 25.6678 17.6261 26.0072 17.5441 26.3277C17.5441 26.5997 16.7366 30.216 11.9091 32.5507C11.6282 32.6823 11.1455 32.972 11.9969 33.4284C13.331 34.1657 14.2176 34.0868 14.9022 34.5256C15.5868 34.9644 15.1392 35.7193 15.5693 36.0089C15.9993 36.2986 17.6407 36.0089 19.6331 36.6409C21.3096 37.1939 22.3277 38.7562 25.2945 38.7562C28.2612 38.7562 29.3057 37.1851 30.947 36.6409C32.9395 35.9826 34.4579 36.3688 35.0197 36.0089C35.5814 35.6491 35.0987 34.903 35.678 34.5256C36.2573 34.1482 37.2579 34.1657 38.592 33.4284C39.461 33.0159 38.9782 32.7263 38.6973 32.5858Z" fill="white"/>
<path d="M40.8037 32.3137C40.5968 31.7981 40.2014 31.3807 39.6978 31.1463C39.6225 31.0985 39.5432 31.0575 39.4608 31.0234L39.0307 30.8039C37.674 30.1258 36.5068 29.1215 35.6339 27.8812C35.4057 27.5552 35.2088 27.2084 35.0459 26.8454C34.9892 26.7168 34.9892 26.5703 35.0459 26.4417C35.0988 26.3668 35.1641 26.3015 35.239 26.2486L35.9236 25.801C36.2395 25.5991 36.4854 25.4323 36.6433 25.3182C37.1775 24.9762 37.6203 24.5092 37.9336 23.9577C38.2981 23.2551 38.3398 22.4289 38.0477 21.6932C37.6405 20.6079 36.5714 19.9165 35.4145 19.9904C35.1608 19.9906 34.9079 20.0171 34.6597 20.0694L34.4666 20.1221C34.4666 19.4023 34.4666 18.6475 34.3963 17.9014C34.3129 16.0116 33.5707 14.2106 32.2986 12.8106C31.6871 12.1141 30.9668 11.5213 30.1657 11.0551C27.1184 9.3926 23.4351 9.3926 20.3878 11.0551C19.5825 11.5189 18.8589 12.1119 18.2462 12.8106C16.9759 14.2118 16.2341 16.0121 16.1484 17.9014C16.0861 18.6398 16.0627 19.3811 16.0782 20.1221L15.8851 20.0781C15.6368 20.0258 15.3839 19.9994 15.1302 19.9992C14.1686 19.9657 13.2625 20.4492 12.7551 21.2667C12.2475 22.0842 12.2161 23.1107 12.6726 23.9577C12.9845 24.5098 13.4239 24.9793 13.9541 25.3269L14.6738 25.8097L15.3409 26.2398C15.4257 26.2937 15.4976 26.3656 15.5515 26.4504C15.6161 26.5835 15.6161 26.7388 15.5515 26.8718C15.3926 27.2278 15.2017 27.5685 14.981 27.8899C14.1207 29.095 12.9865 30.0787 11.672 30.7601C10.926 31.1551 10.1448 31.4272 9.81123 32.3225C9.55992 33.065 9.77379 33.8858 10.3554 34.4114C10.5876 34.6546 10.8573 34.8591 11.1542 35.017C11.768 35.3589 12.4227 35.6214 13.1027 35.7982C13.2431 35.8347 13.3765 35.8941 13.4977 35.9738C13.7259 36.1757 13.6996 36.4829 14.0068 36.9217C14.1549 37.1546 14.3491 37.3547 14.5773 37.5098C15.2226 37.8853 15.9652 38.0595 16.7101 38.0101C17.5166 38.0106 18.3183 38.1319 19.0888 38.37C19.5124 38.534 19.9159 38.7461 20.2913 39.0019C23.3039 41.0974 27.3022 41.0974 30.3149 39.0019C30.6924 38.7445 31.099 38.5323 31.5262 38.37C32.294 38.1344 33.0929 38.0161 33.896 38.0189C34.6429 38.0525 35.3835 37.8696 36.0289 37.4922C36.2964 37.3012 36.5207 37.0559 36.6872 36.7725C36.9066 36.3951 36.9066 36.1318 37.1085 35.9475C37.2226 35.8742 37.3469 35.8181 37.4771 35.7807C38.1674 35.597 38.8333 35.3319 39.4608 34.9907C39.7734 34.8228 40.0554 34.6033 40.2947 34.3412C40.8374 33.8179 41.035 33.0313 40.8037 32.3137ZM38.6182 33.4898C37.2841 34.2271 36.3976 34.1481 35.7042 34.587C35.0108 35.0258 35.4672 35.7807 35.0371 36.0704C34.607 36.36 32.9744 36.0704 30.9732 36.7023C29.3319 37.2465 28.2786 38.8176 25.3207 38.8176C22.3627 38.8176 21.327 37.2553 19.6593 36.7023C17.6669 36.044 16.1484 36.4302 15.5866 36.0704C15.0249 35.7104 15.5077 34.9644 14.9284 34.587C14.3491 34.2095 13.3485 34.2183 12.0143 33.4898C11.1366 33.0159 11.6457 32.7262 11.9353 32.6121C16.7628 30.2686 17.5352 26.6611 17.5703 26.389C17.6523 26.0685 17.5471 25.7292 17.2982 25.5113C16.9559 25.1953 15.4199 24.2474 14.9986 23.9489C14.2964 23.4574 13.9892 22.9659 14.2086 22.3602C14.3726 21.9849 14.7572 21.7555 15.1654 21.7897C15.2952 21.7908 15.4247 21.8055 15.5515 21.8336C16.324 22.0004 17.07 22.3866 17.5089 22.4919H17.6669C17.8951 22.4919 17.9741 22.3778 17.9653 22.1145C17.8641 20.7734 17.8641 19.4267 17.9653 18.0857C18.015 16.5669 18.6065 15.1161 19.633 13.9955C21.1054 12.4157 23.1884 11.5485 25.347 11.6168C27.5046 11.544 29.5883 12.4082 31.061 13.9867C32.0906 15.106 32.6853 16.557 32.7375 18.0769C32.8342 19.4181 32.8342 20.7645 32.7375 22.1057C32.7375 22.3866 32.7989 22.4832 33.0358 22.4832H33.1939C33.6239 22.3778 34.37 21.9916 35.1424 21.8248C35.2694 21.7972 35.3987 21.7826 35.5286 21.7809C35.9374 21.7439 36.3235 21.9743 36.4854 22.3514C36.7136 22.9571 36.4063 23.4486 35.7042 23.9401C35.2741 24.2298 33.7469 25.1777 33.4045 25.5025C33.1557 25.7204 33.0505 26.0598 33.1324 26.3803C33.1324 26.6523 33.9399 30.2686 38.7675 32.6033C38.978 32.7262 39.4608 33.0159 38.6182 33.4898Z" fill="black"/>
</svg>
