<svg width="30" height="30" viewBox="0 0 30 30" fill="none" xmlns="http://www.w3.org/2000/svg">
<path d="M29.5538 6.17098C28.51 6.63348 27.3888 6.94598 26.21 7.08723C27.4263 6.35947 28.3362 5.21406 28.77 3.86473C27.6273 4.54347 26.3767 5.02122 25.0725 5.27723C24.1955 4.34081 23.0338 3.72014 21.7679 3.51157C20.502 3.30301 19.2026 3.51822 18.0716 4.1238C16.9405 4.72937 16.041 5.69143 15.5127 6.86061C14.9844 8.02979 14.8569 9.34067 15.15 10.5897C12.8346 10.4735 10.5696 9.87167 8.5018 8.82336C6.43404 7.77505 4.60982 6.30368 3.14751 4.50473C2.64751 5.36723 2.36001 6.36723 2.36001 7.43223C2.35946 8.39097 2.59556 9.33503 3.04736 10.1806C3.49917 11.0263 4.15272 11.7473 4.95002 12.2797C4.02536 12.2503 3.12111 12.0005 2.31251 11.551V11.626C2.31242 12.9707 2.77756 14.274 3.62899 15.3147C4.48043 16.3555 5.66573 17.0696 6.98377 17.336C6.126 17.5681 5.22669 17.6023 4.35377 17.436C4.72564 18.593 5.45001 19.6048 6.42547 20.3296C7.40094 21.0545 8.57866 21.4562 9.79377 21.4785C7.73106 23.0977 5.18362 23.9761 2.56126 23.9722C2.09674 23.9724 1.63261 23.9452 1.17126 23.891C3.83311 25.6024 6.93169 26.5108 10.0963 26.5072C20.8088 26.5072 26.665 17.6347 26.665 9.93973C26.665 9.68973 26.6588 9.43723 26.6475 9.18723C27.7866 8.36345 28.7699 7.34335 29.5513 6.17473L29.5538 6.17098Z" fill="#8C8C8C"/>
</svg>
