<svg width="30" height="30" viewBox="0 0 30 30" fill="none" xmlns="http://www.w3.org/2000/svg">
<path d="M26.1837 10.3816C26.1711 9.43484 25.9939 8.49753 25.66 7.61156C25.3704 6.86425 24.9281 6.18556 24.3614 5.61885C23.7947 5.05214 23.116 4.60988 22.3687 4.32031C21.4941 3.99201 20.5702 3.81449 19.6362 3.79531C18.4337 3.74156 18.0525 3.72656 15 3.72656C11.9475 3.72656 11.5562 3.72656 10.3625 3.79531C9.42891 3.81463 8.5054 3.99215 7.63122 4.32031C6.88379 4.60967 6.20499 5.05187 5.63826 5.6186C5.07152 6.18534 4.62933 6.86414 4.33997 7.61156C4.011 8.48548 3.83387 9.4092 3.81622 10.3428C3.76247 11.5466 3.74622 11.9278 3.74622 14.9803C3.74622 18.0328 3.74622 18.4228 3.81622 19.6178C3.83497 20.5528 4.01122 21.4753 4.33997 22.3516C4.62981 23.0988 5.07234 23.7773 5.63926 24.3438C6.20619 24.9103 6.88505 25.3523 7.63247 25.6416C8.50426 25.9831 9.42793 26.1733 10.3637 26.2041C11.5675 26.2578 11.9487 26.2741 15.0012 26.2741C18.0537 26.2741 18.445 26.2741 19.6387 26.2041C20.5727 26.1857 21.4967 26.0086 22.3712 25.6803C23.1183 25.3904 23.7969 24.948 24.3635 24.3814C24.9302 23.8147 25.3726 23.1362 25.6625 22.3891C25.9912 21.5141 26.1675 20.5916 26.1862 19.6553C26.24 18.4528 26.2562 18.0716 26.2562 15.0178C26.2537 11.9653 26.2537 11.5778 26.1837 10.3816ZM14.9925 20.7528C11.8 20.7528 9.21372 18.1666 9.21372 14.9741C9.21372 11.7816 11.8 9.19531 14.9925 9.19531C16.5251 9.19531 17.9949 9.80414 19.0787 10.8879C20.1624 11.9716 20.7712 13.4414 20.7712 14.9741C20.7712 16.5067 20.1624 17.9765 19.0787 19.0603C17.9949 20.144 16.5251 20.7528 14.9925 20.7528ZM21.0012 10.3291C20.8242 10.3292 20.6489 10.2945 20.4854 10.2268C20.3218 10.1592 20.1732 10.0599 20.048 9.93476C19.9229 9.8096 19.8236 9.66098 19.756 9.49742C19.6883 9.33386 19.6536 9.15857 19.6537 8.98156C19.6537 8.80469 19.6886 8.62955 19.7562 8.46614C19.8239 8.30273 19.9231 8.15425 20.0482 8.02918C20.1733 7.90411 20.3218 7.8049 20.4852 7.73721C20.6486 7.66953 20.8237 7.63469 21.0006 7.63469C21.1775 7.63469 21.3526 7.66953 21.516 7.73721C21.6794 7.8049 21.8279 7.90411 21.953 8.02918C22.078 8.15425 22.1773 8.30273 22.2449 8.46614C22.3126 8.62955 22.3475 8.80469 22.3475 8.98156C22.3475 9.72656 21.745 10.3291 21.0012 10.3291Z" fill="#8C8C8C"/>
<path d="M14.9925 18.7277C17.0657 18.7277 18.7463 17.0471 18.7463 14.974C18.7463 12.9008 17.0657 11.2202 14.9925 11.2202C12.9194 11.2202 11.2388 12.9008 11.2388 14.974C11.2388 17.0471 12.9194 18.7277 14.9925 18.7277Z" fill="#8C8C8C"/>
</svg>
