<svg width="50" height="51" viewBox="0 0 50 51" fill="none" xmlns="http://www.w3.org/2000/svg">
<path fill-rule="evenodd" clip-rule="evenodd" d="M38.0136 23.0903C30.9221 18.8788 19.2248 18.4916 12.4551 20.5462C11.3677 20.8762 10.2181 20.2625 9.88896 19.1754C9.55953 18.0876 10.1724 16.9387 11.2603 16.6082C19.0317 14.2494 31.95 14.7049 40.1139 19.5511C41.092 20.1317 41.4125 21.3945 40.833 22.3707C40.2529 23.3485 38.989 23.6709 38.0136 23.0903ZM37.7813 29.328C37.2838 30.1353 36.2282 30.3885 35.422 29.8928C29.51 26.2588 20.4944 25.2059 13.4999 27.3291C12.593 27.6031 11.6349 27.0918 11.3593 26.1863C11.0861 25.2794 11.5976 24.3232 12.5032 24.0473C20.4934 21.6225 30.4266 22.7968 37.2171 26.9699C38.0233 27.4665 38.2771 28.5225 37.7813 29.328ZM35.0894 35.3185C34.694 35.9669 33.8499 36.1699 33.2039 35.7748C28.0378 32.6173 21.5353 31.9044 13.8774 33.6535C13.1394 33.8226 12.4039 33.3603 12.2357 32.6226C12.0665 31.8847 12.5273 31.1491 13.2669 30.9807C21.6472 29.065 28.8357 29.8894 34.6344 33.4328C35.2809 33.8276 35.4845 34.6722 35.0894 35.3185ZM24.9999 3.58691C12.8499 3.58691 3 13.4366 3 25.5865C3 37.7378 12.8499 47.5869 24.9999 47.5869C37.1503 47.5869 47 37.7378 47 25.5865C47 13.4366 37.1503 3.58691 24.9999 3.58691Z" fill="#1ED760"/>
</svg>
