<svg width="51" height="51" viewBox="0 0 51 51" fill="none" xmlns="http://www.w3.org/2000/svg">
<path d="M25.8479 3C14.2706 3 4.78649 11.9113 3.88586 23.2353L15.6978 28.1106C16.7292 27.4044 17.9541 27.0267 19.2085 27.0282C19.3257 27.0282 19.4416 27.0315 19.5557 27.0377L24.8092 19.4359V19.3295C24.8092 14.7553 28.5372 11.033 33.1199 11.033C37.7024 11.033 41.4304 14.7553 41.4304 19.3295C41.4304 23.9035 37.7024 27.6274 33.1199 27.6274C33.0563 27.6274 32.9944 27.6259 32.9312 27.6243L25.4386 32.9592C25.4435 33.0581 25.4466 33.1569 25.4466 33.2542C25.4466 36.6894 22.6479 39.4832 19.2085 39.4832C16.1894 39.4832 13.6633 37.331 13.0925 34.4824L4.64383 30.9952C7.26029 40.2298 15.7595 47 25.8479 47C38.0197 47 47.8859 37.1491 47.8859 25C47.8859 12.8495 38.0197 3 25.8479 3ZM17.6964 36.3813L14.9895 35.2646C15.4685 36.2621 16.2994 37.0966 17.4014 37.5548C19.7831 38.546 22.5295 37.4183 23.5222 35.0386C24.0029 33.8944 24.0057 32.6084 23.5301 31.4621C23.0544 30.3077 22.1553 29.4072 21.0026 28.9272C19.8561 28.452 18.6288 28.4692 17.5504 28.8755L20.3477 30.03C22.1046 30.7611 22.9355 32.7751 22.2029 34.5289C21.4719 36.2825 19.4533 37.1124 17.6964 36.3813ZM38.6577 19.3295C38.6577 16.2818 36.1729 13.8003 33.1204 13.8003C30.0664 13.8003 27.5816 16.2818 27.5816 19.3295C27.5816 22.3774 30.0664 24.8573 33.1204 24.8573C36.1729 24.8573 38.6577 22.3774 38.6577 19.3295ZM28.9691 19.3202C28.9691 17.0269 30.8323 15.1682 33.1285 15.1682C35.4261 15.1682 37.2893 17.0269 37.2893 19.3202C37.2893 21.6134 35.4261 23.4723 33.1283 23.4723C30.8323 23.4723 28.9691 21.6133 28.9691 19.3202Z" fill="#1A1918"/>
</svg>
