<svg width="50" height="50" viewBox="0 0 50 50" fill="none" xmlns="http://www.w3.org/2000/svg">
<path d="M39.6667 3H10.3333C6.28325 3 3 6.28325 3 10.3333V39.6667C3 43.7168 6.28325 47 10.3333 47H39.6667C43.7168 47 47 43.7168 47 39.6667V10.3333C47 6.28325 43.7168 3 39.6667 3Z" fill="black"/>
<path fill-rule="evenodd" clip-rule="evenodd" d="M29.9568 9.61377C29.9553 10.0243 30.0075 10.4665 30.076 10.8695L26.1808 10.8697V30.2583C26.1808 31.153 26.0894 31.9491 25.9065 32.6468C24.3197 36.1421 19.8305 35.6855 18.5889 33.2868C20.4364 34.4436 23.4735 34.1365 24.7199 31.3911C24.9028 30.6934 24.9942 29.8973 24.9942 29.0026V9.61397L29.9568 9.61377ZM32.605 15.4768C33.6089 16.2792 34.9929 16.8705 36.9017 16.9838L36.9018 18.0977C34.7894 17.7078 33.452 16.6588 32.605 15.4768ZM14.7871 36.7733C8.43283 31.2597 12.5431 18.9843 22.3108 20.5282L22.3108 21.6642C14.0605 21.2813 10.4295 31.1221 14.7871 36.7733Z" fill="#009EE0"/>
<path fill-rule="evenodd" clip-rule="evenodd" d="M31.1434 10.8695V10.8696V10.8702V10.8716L31.1434 10.8743L31.1433 10.8946C31.1442 11.3431 31.2764 17.8354 38.0883 18.2395C38.0883 24.2789 38.092 18.2395 38.092 23.2555C37.5795 23.2865 33.607 22.998 31.1352 20.7945L31.1285 30.5589C31.1888 34.979 28.7275 39.3155 24.12 40.1886C22.8284 40.4333 21.666 40.4617 19.716 40.0356C8.47403 36.6724 12.2098 19.9998 23.4974 21.7839C23.4974 27.166 23.4992 21.7822 23.4992 27.166C18.8373 26.4801 17.2775 30.3599 18.5157 33.1363C19.6435 35.6653 24.2869 36.2142 25.9064 32.6468C26.0893 31.9491 26.1807 31.153 26.1807 30.2583V10.8697L31.1434 10.8695Z" fill="#ECECED"/>
<path fill-rule="evenodd" clip-rule="evenodd" d="M31.1434 10.8695V10.8696V10.8702V10.8716L31.1434 10.8743L31.1433 10.8946C31.1439 11.1578 31.1903 13.5026 32.605 15.4768C30.8998 14.1139 30.2923 12.1425 30.076 10.8695L31.1434 10.8695ZM36.9018 18.0977C37.2729 18.1662 37.6678 18.2146 38.0883 18.2395C38.0883 24.2789 38.092 18.2395 38.092 23.2555C37.5795 23.2866 33.607 22.998 31.1352 20.7945L31.1285 30.5589C31.1888 34.9791 28.7275 39.3156 24.12 40.1886C22.8284 40.4333 21.666 40.4617 19.716 40.0356C17.5183 39.3781 15.8955 38.2108 14.7871 36.7733C15.7759 37.6313 17.0157 38.327 18.5294 38.7799C20.4794 39.206 21.6419 39.1776 22.9334 38.9329C27.5409 38.0598 30.0022 33.7233 29.9419 29.3032L29.9486 19.5388C32.4204 21.7423 36.3929 22.0309 36.9054 21.9998C36.9054 17.3414 36.9022 22.2164 36.9018 18.0977ZM22.3108 21.6643C22.6968 21.6822 23.0916 21.7198 23.4974 21.7839C23.4974 27.166 23.4992 21.7822 23.4992 27.166C18.8373 26.4801 17.2775 30.3599 18.5157 33.1364C18.5385 33.1874 18.5632 33.2374 18.5888 33.2869C18.0357 32.9405 17.589 32.4633 17.3291 31.8806C16.0909 29.1042 17.6507 25.2244 22.3126 25.9103C22.3126 20.9769 22.3111 25.0832 22.3108 21.6643H22.3108Z" fill="#E30079"/>
</svg>
