<svg width="50" height="50" viewBox="0 0 50 50" fill="none" xmlns="http://www.w3.org/2000/svg">
<path d="M25.0938 47.1875C37.2958 47.1875 47.1875 37.2958 47.1875 25.0938C47.1875 12.8917 37.2958 3 25.0938 3C12.8917 3 3 12.8917 3 25.0938C3 37.2958 12.8917 47.1875 25.0938 47.1875Z" fill="#1DA1F2"/>
<path d="M19.9677 36.3175C30.3849 36.3175 36.0851 27.6788 36.0851 20.2001C36.0851 19.9571 36.0851 19.714 36.074 19.471C37.1787 18.6756 38.1398 17.6704 38.902 16.5325C37.8857 16.9855 36.7921 17.2837 35.6432 17.4273C36.8142 16.7314 37.709 15.6156 38.1398 14.29C37.0462 14.9418 35.831 15.4058 34.5385 15.6598C33.5001 14.5551 32.0309 13.8702 30.407 13.8702C27.2807 13.8702 24.7399 16.411 24.7399 19.5373C24.7399 19.9792 24.7952 20.41 24.8836 20.8298C20.1776 20.5978 16.0019 18.3332 13.207 14.9086C12.7209 15.7482 12.4448 16.7203 12.4448 17.7587C12.4448 19.7251 13.45 21.4594 14.9635 22.4758C14.0355 22.4426 13.1628 22.1885 12.4006 21.7688V21.8461C12.4006 24.5857 14.3559 26.8835 16.9409 27.4027C16.4658 27.5352 15.9687 27.6015 15.4495 27.6015C15.085 27.6015 14.7315 27.5684 14.389 27.5021C15.1071 29.7556 17.206 31.3906 19.6805 31.4348C17.7362 32.9592 15.2949 33.8651 12.6436 33.8651C12.1907 33.8651 11.7378 33.843 11.2959 33.7878C13.7925 35.3785 16.7751 36.3175 19.9677 36.3175Z" fill="white"/>
</svg>
