<svg width="50" height="50" fill="none" xmlns="http://www.w3.org/2000/svg"><path d="m.781 49.219 3.422-12.414c-2.133-3.633-3.195-7.797-3.195-12.032C1.008 11.531 11.805.781 25.118.781c6.46 0 12.546 2.5 17.03 7.04 4.563 4.538 7.07 10.593 7.07 16.952 0 13.243-10.796 23.993-24.1 23.993-4.032 0-7.985-.985-11.555-2.953L.78 49.218ZM14.164 41.5l.758.453c3.039 1.82 6.617 2.797 10.187 2.797 11.024 0 20.078-8.93 20.078-19.984 0-5.297-2.054-10.368-5.851-14.078-3.805-3.782-8.82-5.829-14.14-5.829-11.102 0-20.15 8.93-20.15 19.907 0 3.78 1.063 7.414 3.04 10.593l.453.758-2.055 7.344 7.68-1.961Z" fill="#fff"/><path d="m1.563 48.438 3.273-12.063c-2.055-3.492-3.117-7.508-3.117-11.602.07-12.82 10.5-23.21 23.36-23.21 6.241 0 12.1 2.43 16.515 6.828 4.406 4.398 6.843 10.234 6.843 16.46 0 12.82-10.421 23.212-23.289 23.212-3.882 0-7.765-.985-11.109-2.805l-12.476 3.18Z" fill="url(#a)"/><path d="m.781 49.219 3.422-12.414c-2.133-3.633-3.195-7.797-3.195-12.032C1.008 11.531 11.805.781 25.118.781c6.46 0 12.546 2.5 17.03 7.04 4.563 4.538 7.07 10.593 7.07 16.952 0 13.243-10.796 23.993-24.1 23.993-4.032 0-7.985-.985-11.555-2.953L.78 49.218ZM14.164 41.5l.758.453c3.039 1.82 6.617 2.797 10.187 2.797 11.024 0 20.078-8.93 20.078-19.984 0-5.297-2.054-10.368-5.851-14.078-3.805-3.782-8.82-5.829-14.14-5.829-11.102 0-20.15 8.93-20.15 19.907 0 3.78 1.063 7.414 3.04 10.593l.453.758-2.055 7.344 7.68-1.961Z" fill="url(#b)"/><path fill-rule="evenodd" clip-rule="evenodd" d="M19.11 14.781c-.454-.984-.915-.984-1.368-1.062h-1.14a2.17 2.17 0 0 0-1.594.758c-.531.601-2.133 2.046-2.133 4.992 0 2.945 2.133 5.828 2.43 6.203.304.375 4.18 6.664 10.265 9.078 5.094 1.969 6.157 1.586 7.227 1.516 1.14-.078 3.57-1.438 4.11-2.875.53-1.438.53-2.57.382-2.875-.148-.227-.531-.375-1.14-.68-.61-.305-3.57-1.82-4.18-1.969-.61-.148-.992-.305-1.367.305-.383.61-1.524 1.969-1.899 2.344-.383.375-.687.453-1.289.148-.61-.305-2.508-.906-4.867-2.953-1.828-1.586-2.969-3.555-3.344-4.164-.383-.61 0-.906.227-1.211.304-.305.61-.68.914-1.063.304-.375.383-.601.61-.984.226-.375.077-.758-.079-1.062-.172-.282-1.234-3.305-1.766-4.446Z" fill="#fff"/><defs><linearGradient id="a" x1="25" y1="48.438" x2="25" y2="1.563" gradientUnits="userSpaceOnUse"><stop stop-color="#20B038"/><stop offset="1" stop-color="#60D66A"/></linearGradient><linearGradient id="b" x1="25" y1="49.219" x2="25" y2=".781" gradientUnits="userSpaceOnUse"><stop stop-color="#F9F9F9"/><stop offset="1" stop-color="#fff"/></linearGradient></defs></svg>