<svg width="50" height="36" viewBox="0 0 50 36" fill="none" xmlns="http://www.w3.org/2000/svg">
<g clip-path="url(#clip0_78:462)">
<path d="M26.1019 34.528L15.8614 34.333C12.5455 34.2354 9.22953 34.4305 5.91358 33.7478C0.939648 32.7725 0.647066 27.7986 0.256955 23.6048C-0.230685 17.7532 -0.0356291 11.804 0.939649 5.9523C1.52482 2.73388 3.57291 0.783313 6.88886 0.58826C18.007 -0.191965 29.1252 -0.0944366 40.1459 0.295676C41.3162 0.295676 42.4866 0.490731 43.6569 0.685788C49.3135 1.66107 49.5086 7.31769 49.8012 11.9991C50.1912 16.7779 49.9963 21.5568 49.3135 26.3356C48.7284 30.2368 47.6555 33.5527 43.1693 33.8453C37.5127 34.333 31.856 34.6255 26.1019 34.528C26.1994 34.528 26.1994 34.528 26.1019 34.528ZM20.1527 24.5802C24.4439 22.142 28.6376 19.7037 32.9288 17.2655C28.6376 14.8273 24.4439 12.3891 20.1527 9.95094V24.5802Z" fill="#FF0000"/>
</g>
<defs>
<clipPath id="clip0_78:462">
<rect width="50" height="35.1562" fill="white"/>
</clipPath>
</defs>
</svg>
